<?xml version="1.0" encoding="UTF-8"?>
<svg width="56px" height="62px" viewBox="0 0 56 62" version="1.1" xmlns="http://www.w3.org/2000/svg" xmlns:xlink="http://www.w3.org/1999/xlink">
    <!-- Generator: Sketch 60.1 (88133) - https://sketch.com -->
    <title>编组</title>
    <desc>Created with Sketch.</desc>
    <defs>
        <polygon id="path-1" points="0 0.7917 35.2775 0.7917 35.2775 16.7917 0 16.7917"></polygon>
    </defs>
    <g id="页面-1" stroke="none" stroke-width="1" fill="none" fill-rule="evenodd">
        <g id="首页" transform="translate(-1210.000000, -3475.000000)">
            <g id="编组" transform="translate(1210.000000, 3474.000000)">
                <g transform="translate(0.000000, 0.520800)">
                    <g transform="translate(6.000000, 1.000000)">
                        <path d="M48.8747,11.7497 L48.8747,56.5977 C48.8747,58.4697 47.3447,59.9997 45.4727,59.9997 L4.1107,59.9997 C2.2387,59.9997 0.7087,58.4697 0.7087,56.5977 L0.7087,3.9017 C0.7087,2.0307 2.2387,0.4997 4.1107,0.4997 L36.9167,0.4997" id="Fill-1" fill="#FFFFFF"></path>
                        <path d="M48.8747,11.7497 L48.8747,56.5977 C48.8747,58.4697 47.3447,59.9997 45.4727,59.9997 L4.1107,59.9997 C2.2387,59.9997 0.7087,58.4697 0.7087,56.5977 L0.7087,3.9017 C0.7087,2.0307 2.2387,0.4997 4.1107,0.4997 L36.9167,0.4997" id="Stroke-3" stroke="#FCA253" stroke-width="2"></path>
                    </g>
                    <polygon id="Fill-4" fill="#FCA253" points="42.8747 0.4792 42.8747 12.7502 55.8897 12.7502"></polygon>
                    <g transform="translate(0.000000, 5.000000)">
                        <mask id="mask-2" fill="white">
                            <use xlink:href="#path-1"></use>
                        </mask>
                        <g id="Clip-7"></g>
                        <path d="M33.0065,16.7917 L-0.0005,16.7917 L-0.0005,3.0627 C-0.0005,1.8127 1.0225,0.7917 2.2705,0.7917 L33.0065,0.7917 C34.2555,0.7917 35.2775,1.8127 35.2775,3.0627 L35.2775,14.5207 C35.2775,15.7707 34.2555,16.7917 33.0065,16.7917" id="Fill-6" fill="#FCA253" mask="url(#mask-2)"></path>
                    </g>
                    <path d="M0.0729,21.8337 L5.8229,25.7087 L5.8229,21.8227 C5.8229,21.8227 0.1979,21.8337 0.0729,21.8337" id="Fill-8" fill="#C6661E"></path>
                    <path d="M42.8747,12.7497 L53.9167,23.5357 L53.9167,12.7927 C53.9167,12.7927 43.0887,12.7497 42.8747,12.7497" id="Fill-10" fill="#E6E6E6"></path>
                </g>
                <text id="EPS" font-family="PingFangSC-Regular, PingFang SC" font-size="10.576" font-weight="normal" fill="#FFFFFF">
                    <tspan x="7.9297" y="17">EPS</tspan>
                </text>
                <g transform="translate(18.000000, 27.520800)">
                    <polygon id="Stroke-12" stroke="#FCA253" points="2.854 21.942 22.594 21.942 22.594 2.202 2.854 2.202"></polygon>
                    <path d="M5.2194,2.3219 C5.2194,3.5749 4.2024,4.5919 2.9494,4.5919 C1.6964,4.5919 0.6804,3.5749 0.6804,2.3219 C0.6804,1.0679 1.6964,0.0519 2.9494,0.0519 C4.2024,0.0519 5.2194,1.0679 5.2194,2.3219" id="Fill-14" fill="#FFFFFF"></path>
                    <path d="M5.2194,2.3219 C5.2194,3.5749 4.2024,4.5919 2.9494,4.5919 C1.6964,4.5919 0.6804,3.5749 0.6804,2.3219 C0.6804,1.0679 1.6964,0.0519 2.9494,0.0519 C4.2024,0.0519 5.2194,1.0679 5.2194,2.3219 Z" id="Stroke-15" stroke="#FCA253"></path>
                    <path d="M5.2194,21.8942 C5.2194,23.1482 4.2024,24.1642 2.9494,24.1642 C1.6964,24.1642 0.6804,23.1482 0.6804,21.8942 C0.6804,20.6412 1.6964,19.6242 2.9494,19.6242 C4.2024,19.6242 5.2194,20.6412 5.2194,21.8942" id="Fill-16" fill="#FFFFFF"></path>
                    <path d="M5.2194,21.8942 C5.2194,23.1482 4.2024,24.1642 2.9494,24.1642 C1.6964,24.1642 0.6804,23.1482 0.6804,21.8942 C0.6804,20.6412 1.6964,19.6242 2.9494,19.6242 C4.2024,19.6242 5.2194,20.6412 5.2194,21.8942 Z" id="Stroke-17" stroke="#FCA253"></path>
                    <path d="M24.7282,2.3219 C24.7282,3.5749 23.7112,4.5919 22.4582,4.5919 C21.2052,4.5919 20.1892,3.5749 20.1892,2.3219 C20.1892,1.0679 21.2052,0.0519 22.4582,0.0519 C23.7112,0.0519 24.7282,1.0679 24.7282,2.3219" id="Fill-18" fill="#FFFFFF"></path>
                    <path d="M24.7282,2.3219 C24.7282,3.5749 23.7112,4.5919 22.4582,4.5919 C21.2052,4.5919 20.1892,3.5749 20.1892,2.3219 C20.1892,1.0679 21.2052,0.0519 22.4582,0.0519 C23.7112,0.0519 24.7282,1.0679 24.7282,2.3219 Z" id="Stroke-19" stroke="#FCA253"></path>
                    <path d="M24.7282,21.8942 C24.7282,23.1482 23.7112,24.1642 22.4582,24.1642 C21.2052,24.1642 20.1892,23.1482 20.1892,21.8942 C20.1892,20.6412 21.2052,19.6242 22.4582,19.6242 C23.7112,19.6242 24.7282,20.6412 24.7282,21.8942" id="Fill-20" fill="#FFFFFF"></path>
                    <path d="M24.7282,21.8942 C24.7282,23.1482 23.7112,24.1642 22.4582,24.1642 C21.2052,24.1642 20.1892,23.1482 20.1892,21.8942 C20.1892,20.6412 21.2052,19.6242 22.4582,19.6242 C23.7112,19.6242 24.7282,20.6412 24.7282,21.8942 Z" id="Stroke-21" stroke="#FCA253"></path>
                </g>
            </g>
        </g>
    </g>
</svg>