<?xml version="1.0" encoding="UTF-8"?>
<svg width="55px" height="44px" viewBox="0 0 55 44" version="1.1" xmlns="http://www.w3.org/2000/svg" xmlns:xlink="http://www.w3.org/1999/xlink">
    <!-- Generator: Sketch 60.1 (88133) - https://sketch.com -->
    <title>编组</title>
    <desc>Created with Sketch.</desc>
    <defs>
        <polygon id="path-1" points="0 0.7501 54.2498 0.7501 54.2498 44 0 44"></polygon>
    </defs>
    <g id="页面-1" stroke="none" stroke-width="1" fill="none" fill-rule="evenodd">
        <g id="首页" transform="translate(-1124.000000, -2138.000000)">
            <g id="编组" transform="translate(1124.000000, 2137.000000)">
                <g transform="translate(0.000000, 0.250000)">
                    <mask id="mask-2" fill="white">
                        <use xlink:href="#path-1"></use>
                    </mask>
                    <g id="Clip-2"></g>
                    <path d="M49.6468,34.8661 C49.6468,37.7471 47.2898,40.1041 44.4088,40.1041 L9.8408,40.1041 C6.9598,40.1041 4.6038,37.7471 4.6038,34.8661 L4.6038,9.8841 C4.6038,7.0031 6.9598,4.6451 9.8408,4.6451 L44.4088,4.6451 C47.2898,4.6451 49.6468,7.0031 49.6468,9.8841 L49.6468,34.8661 Z M45.5988,0.7501 L8.6508,0.7501 C3.8928,0.7501 -0.0002,4.6431 -0.0002,9.4011 L-0.0002,35.3491 C-0.0002,40.1071 3.8928,44.0001 8.6508,44.0001 L45.5988,44.0001 C50.3568,44.0001 54.2498,40.1071 54.2498,35.3491 L54.2498,9.4011 C54.2498,4.6431 50.3568,0.7501 45.5988,0.7501 L45.5988,0.7501 Z" id="Fill-1" fill="#C7C7C7" mask="url(#mask-2)"></path>
                </g>
                <path d="M24.3939,31.1903 L10.3149,31.1903 C9.1029,31.1903 8.1209,30.2083 8.1209,28.9963 L8.1209,10.0093 C8.1209,8.7973 9.1029,7.8153 10.3149,7.8153 L24.3939,7.8153 C25.6059,7.8153 26.5879,8.7973 26.5879,10.0093 L26.5879,28.9963 C26.5879,30.2083 25.6059,31.1903 24.3939,31.1903" id="Fill-3" fill="#FCA253"></path>
                <path d="M44.659,30.3856 L31.55,30.3856 C30.421,30.3856 29.506,29.4706 29.506,28.3416 L29.506,10.6636 C29.506,9.5346 30.421,8.6196 31.55,8.6196 L44.659,8.6196 C45.787,8.6196 46.702,9.5346 46.702,10.6636 L46.702,28.3416 C46.702,29.4706 45.787,30.3856 44.659,30.3856 Z" id="Stroke-5" stroke="#5B8EF4" stroke-dasharray="1.958,1.958"></path>
                <path d="M38.8734,26.4569 L39.1964,38.6409 L42.2594,34.9079 C42.4984,34.6129 42.8074,34.4719 43.1874,34.4849 L47.9714,34.7329 L38.8734,26.4569 Z" id="Fill-7" fill="#F75B60"></path>
            </g>
        </g>
    </g>
</svg>