<?xml version="1.0" encoding="UTF-8"?>
<svg width="55px" height="44px" viewBox="0 0 55 44" version="1.1" xmlns="http://www.w3.org/2000/svg" xmlns:xlink="http://www.w3.org/1999/xlink">
    <!-- Generator: Sketch 60.1 (88133) - https://sketch.com -->
    <title>编组</title>
    <desc>Created with Sketch.</desc>
    <defs>
        <polygon id="path-1" points="0.0001 0.75 54.25 0.75 54.25 43.9997 0.0001 43.9997"></polygon>
    </defs>
    <g id="页面-1" stroke="none" stroke-width="1" fill="none" fill-rule="evenodd">
        <g id="首页" transform="translate(-1124.000000, -2635.000000)">
            <g id="编组" transform="translate(1124.000000, 2634.000000)">
                <g transform="translate(0.000000, 0.250000)">
                    <mask id="mask-2" fill="white">
                        <use xlink:href="#path-1"></use>
                    </mask>
                    <g id="Clip-2"></g>
                    <path d="M49.6471,34.8667 C49.6471,37.7477 47.2901,40.1037 44.4091,40.1037 L9.8411,40.1037 C6.9601,40.1037 4.6031,37.7477 4.6031,34.8667 L4.6031,9.8837 C4.6031,7.0027 6.9601,4.6447 9.8411,4.6447 L44.4091,4.6447 C47.2901,4.6447 49.6471,7.0027 49.6471,9.8837 L49.6471,34.8667 Z M45.5991,0.7497 L8.6511,0.7497 C3.8931,0.7497 0.0001,4.6427 0.0001,9.4007 L0.0001,35.3487 C0.0001,40.1067 3.8931,43.9997 8.6511,43.9997 L45.5991,43.9997 C50.3571,43.9997 54.2501,40.1067 54.2501,35.3487 L54.2501,9.4007 C54.2501,4.6427 50.3571,0.7497 45.5991,0.7497 L45.5991,0.7497 Z" id="Fill-1" fill="#C7C7C7" mask="url(#mask-2)"></path>
                </g>
                <path d="M19.0573,33.6675 L10.8853,33.6675 C10.1823,33.6675 9.6123,33.0975 9.6123,32.3945 L9.6123,21.3745 C9.6123,20.6705 10.1823,20.1005 10.8853,20.1005 L19.0573,20.1005 C19.7603,20.1005 20.3303,20.6705 20.3303,21.3745 L20.3303,32.3945 C20.3303,33.0975 19.7603,33.6675 19.0573,33.6675" id="Fill-3" fill="#5B8EF4"></path>
                <path d="M31.8903,33.6675 L23.7193,33.6675 C23.0153,33.6675 22.4453,33.0975 22.4453,32.3945 L22.4453,21.3745 C22.4453,20.6705 23.0153,20.1005 23.7193,20.1005 L31.8903,20.1005 C32.5943,20.1005 33.1643,20.6705 33.1643,21.3745 L33.1643,32.3945 C33.1643,33.0975 32.5943,33.6675 31.8903,33.6675" id="Fill-5" fill="#5B8EF4"></path>
                <path d="M44.5573,33.6675 L36.3853,33.6675 C35.6823,33.6675 35.1123,33.0975 35.1123,32.3945 L35.1123,21.3745 C35.1123,20.6705 35.6823,20.1005 36.3853,20.1005 L44.5573,20.1005 C45.2603,20.1005 45.8303,20.6705 45.8303,21.3745 L45.8303,32.3945 C45.8303,33.0975 45.2603,33.6675 44.5573,33.6675" id="Fill-7" fill="#5B8EF4"></path>
                <path d="M44.0631,15.565 L11.0631,15.565 C10.0091,15.565 9.1471,14.703 9.1471,13.649 C9.1471,12.594 10.0091,11.732 11.0631,11.732 L44.0631,11.732 C45.1181,11.732 45.9801,12.594 45.9801,13.649 C45.9801,14.703 45.1181,15.565 44.0631,15.565" id="Fill-9" fill="#FCA253"></path>
            </g>
        </g>
    </g>
</svg>