<?xml version="1.0" encoding="UTF-8"?>
<svg width="55px" height="44px" viewBox="0 0 55 44" version="1.1" xmlns="http://www.w3.org/2000/svg" xmlns:xlink="http://www.w3.org/1999/xlink">
    <!-- Generator: Sketch 60.1 (88133) - https://sketch.com -->
    <title>编组</title>
    <desc>Created with Sketch.</desc>
    <defs>
        <polygon id="path-1" points="0.0005 0.75 54.25 0.75 54.25 43.9997 0.0005 43.9997"></polygon>
        <polygon id="path-3" points="0 44.25 54.25 44.25 54.25 1 0 1"></polygon>
    </defs>
    <g id="页面-1" stroke="none" stroke-width="1" fill="none" fill-rule="evenodd">
        <g id="首页" transform="translate(-1124.000000, -3030.000000)">
            <g id="编组" transform="translate(1124.000000, 3029.000000)">
                <path d="M42.5683,36.7964 L11.7943,36.7964 C10.2753,36.7964 9.0453,35.5664 9.0453,34.0484 L9.0453,20.8784 C9.0453,19.3604 10.2753,18.1304 11.7943,18.1304 L42.5683,18.1304 C44.0863,18.1304 45.3163,19.3604 45.3163,20.8784 L45.3163,34.0484 C45.3163,35.5664 44.0863,36.7964 42.5683,36.7964" id="Fill-1" fill="#5B8EF4"></path>
                <g transform="translate(0.000000, 0.250000)">
                    <mask id="mask-2" fill="white">
                        <use xlink:href="#path-1"></use>
                    </mask>
                    <g id="Clip-4"></g>
                    <path d="M49.6465,34.8667 C49.6465,37.7477 47.2905,40.1037 44.4095,40.1037 L9.8405,40.1037 C6.9595,40.1037 4.6035,37.7477 4.6035,34.8667 L4.6035,9.8837 C4.6035,7.0027 6.9595,4.6447 9.8405,4.6447 L44.4095,4.6447 C47.2905,4.6447 49.6465,7.0027 49.6465,9.8837 L49.6465,34.8667 Z M45.5995,0.7497 L8.6515,0.7497 C3.8925,0.7497 0.0005,4.6427 0.0005,9.4007 L0.0005,35.3487 C0.0005,40.1067 3.8925,43.9997 8.6515,43.9997 L45.5995,43.9997 C50.3575,43.9997 54.2505,40.1067 54.2505,35.3487 L54.2505,9.4007 C54.2505,4.6427 50.3575,0.7497 45.5995,0.7497 L45.5995,0.7497 Z" id="Fill-3" fill="#C7C7C7" mask="url(#mask-2)"></path>
                </g>
                <path d="M22.8252,11.4644 C22.8252,13.5344 21.1462,15.2144 19.0752,15.2144 C17.0052,15.2144 15.3252,13.5344 15.3252,11.4644 C15.3252,9.3934 17.0052,7.7144 19.0752,7.7144 C21.1462,7.7144 22.8252,9.3934 22.8252,11.4644" id="Fill-5" fill="#FCA253"></path>
                <path d="M37.4092,11.482 C37.4092,13.553 35.7302,15.232 33.6592,15.232 C31.5882,15.232 29.9092,13.553 29.9092,11.482 C29.9092,9.411 31.5882,7.732 33.6592,7.732 C35.7302,7.732 37.4092,9.411 37.4092,11.482" id="Fill-7" fill="#C7C7C7"></path>
                <polygon id="Fill-9" fill="#FFFFFF" points="19.3232 10.0679 19.3232 11.1289 20.3842 11.1289 20.3842 11.6149 19.3232 11.6149 19.3232 12.6789 18.8372 12.6789 18.8372 11.6149 17.7712 11.6149 17.7712 11.1289 18.8372 11.1289 18.8372 10.0679"></polygon>
                <mask id="mask-4" fill="white">
                    <use xlink:href="#path-3"></use>
                </mask>
                <g id="Clip-12"></g>
                <polygon id="Fill-11" fill="#FFFFFF" mask="url(#mask-4)" points="32.573 11.846 35.185 11.846 35.185 11.36 32.573 11.36"></polygon>
            </g>
        </g>
    </g>
</svg>