<?xml version="1.0" encoding="UTF-8"?>
<svg width="55px" height="44px" viewBox="0 0 55 44" version="1.1" xmlns="http://www.w3.org/2000/svg" xmlns:xlink="http://www.w3.org/1999/xlink">
    <!-- Generator: Sketch 60.1 (88133) - https://sketch.com -->
    <title>编组</title>
    <desc>Created with Sketch.</desc>
    <defs>
        <polygon id="path-1" points="0.0005 0.75 54.25 0.75 54.25 43.9997 0.0005 43.9997"></polygon>
    </defs>
    <g id="页面-1" stroke="none" stroke-width="1" fill="none" fill-rule="evenodd">
        <g id="首页" transform="translate(-1124.000000, -3096.000000)">
            <g id="编组" transform="translate(1124.000000, 3095.000000)">
                <path d="M18.5508,28.1167 L10.5668,28.1167 C9.7268,28.1167 9.0448,27.4347 9.0448,26.5957 L9.0448,10.8187 C9.0448,9.9777 9.7268,9.2977 10.5668,9.2977 L18.5508,9.2977 C19.3908,9.2977 20.0718,9.9777 20.0718,10.8187 L20.0718,26.5957 C20.0718,27.4347 19.3908,28.1167 18.5508,28.1167" id="Fill-1" fill="#C7C7C7"></path>
                <path d="M31.4072,36.5503 L24.0432,36.5503 C23.0312,36.5503 22.2122,35.7313 22.2122,34.7193 L22.2122,11.1283 C22.2122,10.1163 23.0312,9.2973 24.0432,9.2973 L31.4072,9.2973 C32.4192,9.2973 33.2382,10.1163 33.2382,11.1283 L33.2382,34.7193 C33.2382,35.7313 32.4192,36.5503 31.4072,36.5503" id="Fill-3" fill="#FCA253"></path>
                <path d="M44.9775,22.232 L36.4735,22.232 C35.7765,22.232 35.2115,21.668 35.2115,20.97 L35.2115,10.558 C35.2115,9.862 35.7765,9.297 36.4735,9.297 L44.9775,9.297 C45.6735,9.297 46.2385,9.862 46.2385,10.558 L46.2385,20.97 C46.2385,21.668 45.6735,22.232 44.9775,22.232" id="Fill-5" fill="#5B8EF4"></path>
                <path d="M19.166,36.565 L9.951,36.565 C9.451,36.565 9.045,36.16 9.045,35.66 L9.045,30.799 C9.045,30.299 9.451,29.893 9.951,29.893 L19.166,29.893 C19.666,29.893 20.072,30.299 20.072,30.799 L20.072,35.66 C20.072,36.16 19.666,36.565 19.166,36.565" id="Fill-7" fill="#C7C7C7"></path>
                <path d="M44.9775,36.565 L36.4735,36.565 C35.7765,36.565 35.2115,36.001 35.2115,35.304 L35.2115,24.892 C35.2115,24.195 35.7765,23.63 36.4735,23.63 L44.9775,23.63 C45.6735,23.63 46.2385,24.195 46.2385,24.892 L46.2385,35.304 C46.2385,36.001 45.6735,36.565 44.9775,36.565" id="Fill-9" fill="#C7C7C7"></path>
                <g transform="translate(0.000000, 0.250000)">
                    <mask id="mask-2" fill="white">
                        <use xlink:href="#path-1"></use>
                    </mask>
                    <g id="Clip-12"></g>
                    <path d="M49.6465,34.8667 C49.6465,37.7477 47.2905,40.1037 44.4095,40.1037 L9.8405,40.1037 C6.9595,40.1037 4.6035,37.7477 4.6035,34.8667 L4.6035,9.8837 C4.6035,7.0027 6.9595,4.6447 9.8405,4.6447 L44.4095,4.6447 C47.2905,4.6447 49.6465,7.0027 49.6465,9.8837 L49.6465,34.8667 Z M45.5995,0.7497 L8.6515,0.7497 C3.8925,0.7497 0.0005,4.6427 0.0005,9.4007 L0.0005,35.3487 C0.0005,40.1067 3.8925,43.9997 8.6515,43.9997 L45.5995,43.9997 C50.3575,43.9997 54.2505,40.1067 54.2505,35.3487 L54.2505,9.4007 C54.2505,4.6427 50.3575,0.7497 45.5995,0.7497 L45.5995,0.7497 Z" id="Fill-11" fill="#C7C7C7" mask="url(#mask-2)"></path>
                </g>
            </g>
        </g>
    </g>
</svg>