<?xml version="1.0" encoding="UTF-8"?>
<svg width="55px" height="44px" viewBox="0 0 55 44" version="1.1" xmlns="http://www.w3.org/2000/svg" xmlns:xlink="http://www.w3.org/1999/xlink">
    <!-- Generator: Sketch 60.1 (88133) - https://sketch.com -->
    <title>编组</title>
    <desc>Created with Sketch.</desc>
    <defs>
        <polygon id="path-1" points="0 0.7501 54.2498 0.7501 54.2498 44 0 44"></polygon>
    </defs>
    <g id="页面-1" stroke="none" stroke-width="1" fill="none" fill-rule="evenodd">
        <g id="首页" transform="translate(-1124.000000, -2072.000000)">
            <g id="编组" transform="translate(1124.000000, 2071.000000)">
                <g transform="translate(0.000000, 0.250000)">
                    <mask id="mask-2" fill="white">
                        <use xlink:href="#path-1"></use>
                    </mask>
                    <g id="Clip-2"></g>
                    <path d="M49.6468,34.8661 C49.6468,37.7471 47.2898,40.1041 44.4088,40.1041 L9.8408,40.1041 C6.9598,40.1041 4.6038,37.7471 4.6038,34.8661 L4.6038,9.8841 C4.6038,7.0031 6.9598,4.6451 9.8408,4.6451 L44.4088,4.6451 C47.2898,4.6451 49.6468,7.0031 49.6468,9.8841 L49.6468,34.8661 Z M45.5988,0.7501 L8.6508,0.7501 C3.8928,0.7501 -0.0002,4.6431 -0.0002,9.4011 L-0.0002,35.3491 C-0.0002,40.1071 3.8928,44.0001 8.6508,44.0001 L45.5988,44.0001 C50.3568,44.0001 54.2498,40.1071 54.2498,35.3491 L54.2498,9.4011 C54.2498,4.6431 50.3568,0.7501 45.5988,0.7501 L45.5988,0.7501 Z" id="Fill-1" fill="#C7C7C7" mask="url(#mask-2)"></path>
                </g>
                <path d="M24.1439,31.6903 L10.0649,31.6903 C8.8529,31.6903 7.8709,30.7083 7.8709,29.4963 L7.8709,10.5093 C7.8709,9.2973 8.8529,8.3153 10.0649,8.3153 L24.1439,8.3153 C25.3559,8.3153 26.3379,9.2973 26.3379,10.5093 L26.3379,29.4963 C26.3379,30.7083 25.3559,31.6903 24.1439,31.6903" id="Fill-3" fill="#FCA253"></path>
                <path d="M44.6439,31.6903 L30.5649,31.6903 C29.3529,31.6903 28.3709,30.7083 28.3709,29.4963 L28.3709,10.5093 C28.3709,9.2973 29.3529,8.3153 30.5649,8.3153 L44.6439,8.3153 C45.8559,8.3153 46.8379,9.2973 46.8379,10.5093 L46.8379,29.4963 C46.8379,30.7083 45.8559,31.6903 44.6439,31.6903" id="Fill-5" fill="#5B8EF4"></path>
                <path d="M19.0403,26.9569 L19.3623,39.1409 L22.4253,35.4079 C22.6653,35.1129 22.9743,34.9719 23.3533,34.9849 L28.1373,35.2329 L19.0403,26.9569 Z" id="Fill-7" fill="#F75B60"></path>
            </g>
        </g>
    </g>
</svg>