<?xml version="1.0" encoding="UTF-8"?>
<svg width="55px" height="44px" viewBox="0 0 55 44" version="1.1" xmlns="http://www.w3.org/2000/svg" xmlns:xlink="http://www.w3.org/1999/xlink">
    <!-- Generator: Sketch 60.1 (88133) - https://sketch.com -->
    <title>编组</title>
    <desc>Created with Sketch.</desc>
    <defs>
        <polygon id="path-1" points="0.0005 0.75 54.25 0.75 54.25 43.9997 0.0005 43.9997"></polygon>
    </defs>
    <g id="页面-1" stroke="none" stroke-width="1" fill="none" fill-rule="evenodd">
        <g id="首页" transform="translate(-1124.000000, -2961.000000)">
            <g id="编组" transform="translate(1124.000000, 2960.000000)">
                <path d="M30.8301,35.7964 L10.8531,35.7964 C9.3031,35.7964 8.0451,34.5394 8.0451,32.9874 L8.0451,10.9854 C8.0451,9.4354 9.3031,8.1784 10.8531,8.1784 L30.8301,8.1784 C32.3811,8.1784 33.6381,9.4354 33.6381,10.9854 L33.6381,32.9874 C33.6381,34.5394 32.3811,35.7964 30.8301,35.7964" id="Fill-1" fill="#5B8EF4"></path>
                <path d="M44.832,15.2095 L36.69,15.2095 C36.208,15.2095 35.817,14.8175 35.817,14.3365 L35.817,9.1755 C35.817,8.6935 36.208,8.3035 36.69,8.3035 L44.832,8.3035 C45.313,8.3035 45.705,8.6935 45.705,9.1755 L45.705,14.3365 C45.705,14.8175 45.313,15.2095 44.832,15.2095" id="Fill-3" fill="#FCA253"></path>
                <path d="M45.0195,25.5318 L36.8775,25.5318 C36.3955,25.5318 36.0045,25.1408 36.0045,24.6598 L36.0045,19.4988 C36.0045,19.0168 36.3955,18.6258 36.8775,18.6258 L45.0195,18.6258 C45.5005,18.6258 45.8925,19.0168 45.8925,19.4988 L45.8925,24.6598 C45.8925,25.1408 45.5005,25.5318 45.0195,25.5318" id="Fill-5" fill="#C7C7C7"></path>
                <path d="M44.832,35.855 L36.69,35.855 C36.208,35.855 35.817,35.464 35.817,34.982 L35.817,29.822 C35.817,29.339 36.208,28.949 36.69,28.949 L44.832,28.949 C45.313,28.949 45.705,29.339 45.705,29.822 L45.705,34.982 C45.705,35.464 45.313,35.855 44.832,35.855" id="Fill-7" fill="#C7C7C7"></path>
                <g transform="translate(0.000000, 0.250000)">
                    <mask id="mask-2" fill="white">
                        <use xlink:href="#path-1"></use>
                    </mask>
                    <g id="Clip-10"></g>
                    <path d="M49.6465,34.8667 C49.6465,37.7477 47.2905,40.1037 44.4095,40.1037 L9.8405,40.1037 C6.9595,40.1037 4.6035,37.7477 4.6035,34.8667 L4.6035,9.8837 C4.6035,7.0027 6.9595,4.6447 9.8405,4.6447 L44.4095,4.6447 C47.2905,4.6447 49.6465,7.0027 49.6465,9.8837 L49.6465,34.8667 Z M45.5995,0.7497 L8.6515,0.7497 C3.8925,0.7497 0.0005,4.6427 0.0005,9.4007 L0.0005,35.3487 C0.0005,40.1067 3.8925,43.9997 8.6515,43.9997 L45.5995,43.9997 C50.3575,43.9997 54.2505,40.1067 54.2505,35.3487 L54.2505,9.4007 C54.2505,4.6427 50.3575,0.7497 45.5995,0.7497 L45.5995,0.7497 Z" id="Fill-9" fill="#C7C7C7" mask="url(#mask-2)"></path>
                </g>
            </g>
        </g>
    </g>
</svg>