<?xml version="1.0" encoding="UTF-8"?>
<svg width="55px" height="44px" viewBox="0 0 55 44" version="1.1" xmlns="http://www.w3.org/2000/svg" xmlns:xlink="http://www.w3.org/1999/xlink">
    <!-- Generator: Sketch 60.1 (88133) - https://sketch.com -->
    <title>编组</title>
    <desc>Created with Sketch.</desc>
    <defs>
        <polygon id="path-1" points="0.0001 0.75 54.25 0.75 54.25 43.9997 0.0001 43.9997"></polygon>
    </defs>
    <g id="页面-1" stroke="none" stroke-width="1" fill="none" fill-rule="evenodd">
        <g id="首页" transform="translate(-1124.000000, -2435.000000)">
            <g id="编组" transform="translate(1124.000000, 2434.000000)">
                <g transform="translate(0.000000, 0.250000)">
                    <g>
                        <mask id="mask-2" fill="white">
                            <use xlink:href="#path-1"></use>
                        </mask>
                        <g id="Clip-2"></g>
                        <path d="M49.6471,34.8667 C49.6471,37.7477 47.2901,40.1037 44.4091,40.1037 L9.8411,40.1037 C6.9601,40.1037 4.6031,37.7477 4.6031,34.8667 L4.6031,9.8837 C4.6031,7.0027 6.9601,4.6447 9.8411,4.6447 L44.4091,4.6447 C47.2901,4.6447 49.6471,7.0027 49.6471,9.8837 L49.6471,34.8667 Z M45.5991,0.7497 L8.6511,0.7497 C3.8931,0.7497 0.0001,4.6427 0.0001,9.4007 L0.0001,35.3487 C0.0001,40.1067 3.8931,43.9997 8.6511,43.9997 L45.5991,43.9997 C50.3571,43.9997 54.2501,40.1067 54.2501,35.3487 L54.2501,9.4007 C54.2501,4.6427 50.3571,0.7497 45.5991,0.7497 L45.5991,0.7497 Z" id="Fill-1" fill="#C7C7C7" mask="url(#mask-2)"></path>
                    </g>
                    <path d="M10.3629,15.9439 C10.3629,15.6809 10.5779,15.4659 10.8419,15.4659 L18.5459,15.4659 C18.5659,15.4659 18.5859,15.4769 18.5929,15.4969 L19.4089,17.2729 L10.3629,17.2729 L10.3629,15.9439 Z M22.7569,17.2729 L20.2289,17.2729 L19.2709,15.1869 C19.1409,14.9039 18.8569,14.7209 18.5459,14.7209 L10.8419,14.7209 C10.1669,14.7209 9.6179,15.2699 9.6179,15.9439 L9.6179,18.0179 L9.6199,18.0179 L9.6199,27.0069 C9.6199,27.6819 10.1689,28.2309 10.8429,28.2309 L22.7559,28.2309 C23.4309,28.2309 23.9799,27.6819 23.9799,27.0069 L23.9799,18.4969 C23.9799,17.8219 23.4309,17.2729 22.7569,17.2729 L22.7569,17.2729 Z" id="Fill-3" fill="#FCA253"></path>
                    <path d="M31.3629,15.9439 C31.3629,15.6809 31.5779,15.4659 31.8419,15.4659 L39.5459,15.4659 C39.5659,15.4659 39.5859,15.4769 39.5929,15.4969 L40.4089,17.2729 L31.3629,17.2729 L31.3629,15.9439 Z M43.7579,17.2729 L41.2289,17.2729 L40.2709,15.1869 C40.1409,14.9039 39.8569,14.7209 39.5459,14.7209 L31.8419,14.7209 C31.1669,14.7209 30.6179,15.2699 30.6179,15.9439 L30.6179,18.0179 L30.6199,18.0179 L30.6199,27.0069 C30.6199,27.6819 31.1689,28.2309 31.8419,28.2309 L43.7559,28.2309 C44.4309,28.2309 44.9799,27.6819 44.9799,27.0069 L44.9799,18.4969 C44.9799,17.8219 44.4309,17.2729 43.7579,17.2729 L43.7579,17.2729 Z" id="Fill-5" fill="#5B8EF4"></path>
                </g>
                <text id="T" font-family="PingFangSC-Semibold, PingFang SC" font-size="8.419" font-weight="500" fill="#FFFFFF">
                    <tspan x="34.9155" y="26">T</tspan>
                </text>
            </g>
        </g>
    </g>
</svg>