<?xml version="1.0" encoding="UTF-8"?>
<svg width="55px" height="44px" viewBox="0 0 55 44" version="1.1" xmlns="http://www.w3.org/2000/svg" xmlns:xlink="http://www.w3.org/1999/xlink">
    <!-- Generator: Sketch 60.1 (88133) - https://sketch.com -->
    <title>编组</title>
    <desc>Created with Sketch.</desc>
    <defs>
        <polygon id="path-1" points="0.0001 0.75 54.25 0.75 54.25 43.9997 0.0001 43.9997"></polygon>
    </defs>
    <g id="页面-1" stroke="none" stroke-width="1" fill="none" fill-rule="evenodd">
        <g id="首页" transform="translate(-1124.000000, -2567.000000)">
            <g id="编组" transform="translate(1124.000000, 2566.000000)">
                <g transform="translate(0.000000, 0.250000)">
                    <mask id="mask-2" fill="white">
                        <use xlink:href="#path-1"></use>
                    </mask>
                    <g id="Clip-2"></g>
                    <path d="M49.6471,34.8667 C49.6471,37.7477 47.2901,40.1037 44.4091,40.1037 L9.8411,40.1037 C6.9601,40.1037 4.6031,37.7477 4.6031,34.8667 L4.6031,9.8837 C4.6031,7.0027 6.9601,4.6447 9.8411,4.6447 L44.4091,4.6447 C47.2901,4.6447 49.6471,7.0027 49.6471,9.8837 L49.6471,34.8667 Z M45.5991,0.7497 L8.6511,0.7497 C3.8931,0.7497 0.0001,4.6427 0.0001,9.4007 L0.0001,35.3487 C0.0001,40.1067 3.8931,43.9997 8.6511,43.9997 L45.5991,43.9997 C50.3571,43.9997 54.2501,40.1067 54.2501,35.3487 L54.2501,9.4007 C54.2501,4.6427 50.3571,0.7497 45.5991,0.7497 L45.5991,0.7497 Z" id="Fill-1" fill="#C7C7C7" mask="url(#mask-2)"></path>
                </g>
                <path d="M19.2428,33.6675 L11.0708,33.6675 C10.3678,33.6675 9.7978,33.0975 9.7978,32.3945 L9.7978,21.3745 C9.7978,20.6705 10.3678,20.1005 11.0708,20.1005 L19.2428,20.1005 C19.9458,20.1005 20.5158,20.6705 20.5158,21.3745 L20.5158,32.3945 C20.5158,33.0975 19.9458,33.6675 19.2428,33.6675" id="Fill-3" fill="#5B8EF4"></path>
                <path d="M31.8532,33.6675 L23.6812,33.6675 C22.9782,33.6675 22.4082,33.0975 22.4082,32.3945 L22.4082,21.3745 C22.4082,20.6705 22.9782,20.1005 23.6812,20.1005 L31.8532,20.1005 C32.5562,20.1005 33.1262,20.6705 33.1262,21.3745 L33.1262,32.3945 C33.1262,33.0975 32.5562,33.6675 31.8532,33.6675" id="Fill-5" fill="#5B8EF4"></path>
                <path d="M44.5553,33.6675 L36.3833,33.6675 C35.6803,33.6675 35.1103,33.0975 35.1103,32.3945 L35.1103,21.3745 C35.1103,20.6705 35.6803,20.1005 36.3833,20.1005 L44.5553,20.1005 C45.2583,20.1005 45.8283,20.6705 45.8283,21.3745 L45.8283,32.3945 C45.8283,33.0975 45.2583,33.6675 44.5553,33.6675" id="Fill-7" fill="#5B8EF4"></path>
                <path d="M18.3112,15.565 L12.0022,15.565 C10.9492,15.565 10.0862,14.703 10.0862,13.649 C10.0862,12.594 10.9492,11.732 12.0022,11.732 L18.3112,11.732 C19.3662,11.732 20.2282,12.594 20.2282,13.649 C20.2282,14.703 19.3662,15.565 18.3112,15.565" id="Fill-9" fill="#FCA253"></path>
                <path d="M30.9215,15.565 L24.6125,15.565 C23.5595,15.565 22.6965,14.703 22.6965,13.649 C22.6965,12.594 23.5595,11.732 24.6125,11.732 L30.9215,11.732 C31.9765,11.732 32.8385,12.594 32.8385,13.649 C32.8385,14.703 31.9765,15.565 30.9215,15.565" id="Fill-11" fill="#FCA253"></path>
                <path d="M43.6237,15.565 L37.3147,15.565 C36.2617,15.565 35.3987,14.703 35.3987,13.649 C35.3987,12.594 36.2617,11.732 37.3147,11.732 L43.6237,11.732 C44.6787,11.732 45.5407,12.594 45.5407,13.649 C45.5407,14.703 44.6787,15.565 43.6237,15.565" id="Fill-13" fill="#FCA253"></path>
            </g>
        </g>
    </g>
</svg>