<?xml version="1.0" encoding="UTF-8"?>
<svg width="55px" height="44px" viewBox="0 0 55 44" version="1.1" xmlns="http://www.w3.org/2000/svg" xmlns:xlink="http://www.w3.org/1999/xlink">
    <!-- Generator: Sketch 60.1 (88133) - https://sketch.com -->
    <title>编组</title>
    <desc>Created with Sketch.</desc>
    <defs>
        <polygon id="path-1" points="0.0001 0.75 54.25 0.75 54.25 43.9997 0.0001 43.9997"></polygon>
    </defs>
    <g id="页面-1" stroke="none" stroke-width="1" fill="none" fill-rule="evenodd">
        <g id="首页" transform="translate(-1124.000000, -2501.000000)">
            <g id="编组" transform="translate(1124.000000, 2500.000000)">
                <g transform="translate(0.000000, 0.250000)">
                    <mask id="mask-2" fill="white">
                        <use xlink:href="#path-1"></use>
                    </mask>
                    <g id="Clip-2"></g>
                    <path d="M49.6471,34.8667 C49.6471,37.7477 47.2901,40.1037 44.4091,40.1037 L9.8411,40.1037 C6.9601,40.1037 4.6031,37.7477 4.6031,34.8667 L4.6031,9.8837 C4.6031,7.0027 6.9601,4.6447 9.8411,4.6447 L44.4091,4.6447 C47.2901,4.6447 49.6471,7.0027 49.6471,9.8837 L49.6471,34.8667 Z M45.5991,0.7497 L8.6511,0.7497 C3.8931,0.7497 0.0001,4.6427 0.0001,9.4007 L0.0001,35.3487 C0.0001,40.1067 3.8931,43.9997 8.6511,43.9997 L45.5991,43.9997 C50.3571,43.9997 54.2501,40.1067 54.2501,35.3487 L54.2501,9.4007 C54.2501,4.6427 50.3571,0.7497 45.5991,0.7497 L45.5991,0.7497 Z" id="Fill-1" fill="#C7C7C7" mask="url(#mask-2)"></path>
                </g>
                <path d="M24.3371,33.357 L10.2581,33.357 C9.0461,33.357 8.0641,32.375 8.0641,31.163 L8.0641,12.176 C8.0641,10.964 9.0461,9.982 10.2581,9.982 L24.3371,9.982 C25.5491,9.982 26.5321,10.964 26.5321,12.176 L26.5321,31.163 C26.5321,32.375 25.5491,33.357 24.3371,33.357" id="Fill-3" fill="#FCA253"></path>
                <path d="M44.7184,33.6675 L30.6404,33.6675 C29.4274,33.6675 28.4454,32.6855 28.4454,31.4735 L28.4454,12.4865 C28.4454,11.2745 29.4274,10.2925 30.6404,10.2925 L44.7184,10.2925 C45.9314,10.2925 46.9134,11.2745 46.9134,12.4865 L46.9134,31.4735 C46.9134,32.6855 45.9314,33.6675 44.7184,33.6675" id="Fill-5" fill="#5B8EF4"></path>
                <polygon id="Fill-7" fill="#FFFFFF" points="40.9039 17.9986 40.9039 19.1596 38.1869 19.1596 38.1869 26.2896 36.8289 26.2896 36.8289 19.1596 34.1109 19.1596 34.1109 17.9986"></polygon>
            </g>
        </g>
    </g>
</svg>