<?xml version="1.0" encoding="UTF-8"?>
<svg width="55px" height="44px" viewBox="0 0 55 44" version="1.1" xmlns="http://www.w3.org/2000/svg" xmlns:xlink="http://www.w3.org/1999/xlink">
    <!-- Generator: Sketch 60.1 (88133) - https://sketch.com -->
    <title>编组</title>
    <desc>Created with Sketch.</desc>
    <defs>
        <polygon id="path-1" points="0 0.7501 54.2498 0.7501 54.2498 44 0 44"></polygon>
    </defs>
    <g id="页面-1" stroke="none" stroke-width="1" fill="none" fill-rule="evenodd">
        <g id="首页" transform="translate(-1124.000000, -2009.000000)">
            <g id="编组" transform="translate(1124.000000, 2008.000000)">
                <g transform="translate(0.000000, 0.250000)">
                    <mask id="mask-2" fill="white">
                        <use xlink:href="#path-1"></use>
                    </mask>
                    <g id="Clip-2"></g>
                    <path d="M49.6468,34.8661 C49.6468,37.7471 47.2898,40.1041 44.4088,40.1041 L9.8408,40.1041 C6.9598,40.1041 4.6038,37.7471 4.6038,34.8661 L4.6038,9.8841 C4.6038,7.0031 6.9598,4.6451 9.8408,4.6451 L44.4088,4.6451 C47.2898,4.6451 49.6468,7.0031 49.6468,9.8841 L49.6468,34.8661 Z M45.5988,0.7501 L8.6508,0.7501 C3.8928,0.7501 -0.0002,4.6431 -0.0002,9.4011 L-0.0002,35.3491 C-0.0002,40.1071 3.8928,44.0001 8.6508,44.0001 L45.5988,44.0001 C50.3568,44.0001 54.2498,40.1071 54.2498,35.3491 L54.2498,9.4011 C54.2498,4.6431 50.3568,0.7501 45.5988,0.7501 L45.5988,0.7501 Z" id="Fill-1" fill="#C7C7C7" mask="url(#mask-2)"></path>
                </g>
                <path d="M16.4119,7.1483 L10.8919,7.1483 C9.0159,7.1483 7.4949,8.6693 7.4949,10.5453 L7.4949,16.0653 L10.8919,16.0653 L10.8919,12.0783 C10.8919,11.2313 11.5789,10.5453 12.4249,10.5453 L16.4119,10.5453 L16.4119,7.1483 Z" id="Fill-3" fill="#FCA253"></path>
                <path d="M37.7034,37.8983 L43.2234,37.8983 C45.0994,37.8983 46.6204,36.3773 46.6204,34.5023 L46.6204,28.9823 L43.2234,28.9823 L43.2234,32.9693 C43.2234,33.8153 42.5374,34.5023 41.6904,34.5023 L37.7034,34.5023 L37.7034,37.8983 Z" id="Fill-5" fill="#5B8EF4"></path>
                <path d="M40.2269,33.1483 L13.8269,33.1483 C12.9989,33.1483 12.3289,32.4783 12.3289,31.6513 L12.3289,13.3133 C12.3289,12.4863 12.9989,11.8153 13.8269,11.8153 L40.2269,11.8153 C41.0539,11.8153 41.7249,12.4863 41.7249,13.3133 L41.7249,31.6513 C41.7249,32.4783 41.0539,33.1483 40.2269,33.1483" id="Fill-7" fill="#C7C7C7"></path>
            </g>
        </g>
    </g>
</svg>