<?xml version="1.0" encoding="UTF-8"?>
<svg width="56px" height="62px" viewBox="0 0 56 62" version="1.1" xmlns="http://www.w3.org/2000/svg" xmlns:xlink="http://www.w3.org/1999/xlink">
    <!-- Generator: Sketch 60.1 (88133) - https://sketch.com -->
    <title>编组</title>
    <desc>Created with Sketch.</desc>
    <defs>
        <polygon id="path-1" points="0 0.7917 35.2775 0.7917 35.2775 16.7917 0 16.7917"></polygon>
    </defs>
    <g id="页面-1" stroke="none" stroke-width="1" fill="none" fill-rule="evenodd">
        <g id="首页" transform="translate(-1105.000000, -3475.000000)">
            <g id="编组" transform="translate(1105.000000, 3474.000000)">
                <g transform="translate(0.000000, 0.520800)">
                    <g transform="translate(6.000000, 1.000000)">
                        <path d="M48.8747,11.7497 L48.8747,56.5977 C48.8747,58.4697 47.3447,59.9997 45.4727,59.9997 L4.1107,59.9997 C2.2387,59.9997 0.7087,58.4697 0.7087,56.5977 L0.7087,3.9017 C0.7087,2.0307 2.2387,0.4997 4.1107,0.4997 L36.9167,0.4997" id="Fill-1" fill="#FFFFFF"></path>
                        <path d="M48.8747,11.7497 L48.8747,56.5977 C48.8747,58.4697 47.3447,59.9997 45.4727,59.9997 L4.1107,59.9997 C2.2387,59.9997 0.7087,58.4697 0.7087,56.5977 L0.7087,3.9017 C0.7087,2.0307 2.2387,0.4997 4.1107,0.4997 L36.9167,0.4997" id="Stroke-3" stroke="#FCA253" stroke-width="2"></path>
                    </g>
                    <polygon id="Fill-4" fill="#FCA253" points="42.8747 0.4792 42.8747 12.7502 55.8897 12.7502"></polygon>
                    <g transform="translate(0.000000, 5.000000)">
                        <mask id="mask-2" fill="white">
                            <use xlink:href="#path-1"></use>
                        </mask>
                        <g id="Clip-7"></g>
                        <path d="M33.0065,16.7917 L-0.0005,16.7917 L-0.0005,3.0627 C-0.0005,1.8127 1.0225,0.7917 2.2705,0.7917 L33.0065,0.7917 C34.2555,0.7917 35.2775,1.8127 35.2775,3.0627 L35.2775,14.5207 C35.2775,15.7707 34.2555,16.7917 33.0065,16.7917" id="Fill-6" fill="#FCA253" mask="url(#mask-2)"></path>
                    </g>
                    <path d="M0.0729,21.8337 L5.8229,25.7087 L5.8229,21.8227 C5.8229,21.8227 0.1979,21.8337 0.0729,21.8337" id="Fill-8" fill="#C6661E"></path>
                    <path d="M42.8747,12.7497 L53.9167,23.5357 L53.9167,12.7927 C53.9167,12.7927 43.0887,12.7497 42.8747,12.7497" id="Fill-10" fill="#E6E6E6"></path>
                </g>
                <text id="GIF" font-family="PingFangSC-Regular, PingFang SC" font-size="10.576" font-weight="normal" fill="#FFFFFF">
                    <tspan x="7.9297" y="18">GIF</tspan>
                </text>
                <g transform="translate(13.000000, 32.520800)" fill="#FCA253">
                    <path d="M15.6901,8.6257 C15.6901,12.8617 12.2551,16.2967 8.0191,16.2967 C3.7831,16.2967 0.3481,12.8617 0.3481,8.6257 C0.3481,4.3897 3.7831,0.9547 8.0191,0.9547 C12.2551,0.9547 15.6901,4.3897 15.6901,8.6257" id="Fill-12"></path>
                    <path d="M27.9225,0.9548 L27.9225,1.9548 L28.0975,1.9578 L28.1235,0.9578 L28.1225,0.9578 C28.0675,0.9558 28.0105,0.9558 27.9545,0.9548 L27.9535,0.9548 L27.9485,0.9548 L27.9465,0.9548 L27.9425,0.9548 L27.9415,0.9548 L27.9365,0.9548 L27.9345,0.9548 L27.9285,0.9548 L27.9225,0.9548 Z M30.0935,1.2668 L29.8115,2.2258 C30.3665,2.3898 30.8995,2.6258 31.3955,2.9298 L31.9165,2.0758 C31.7225,1.9578 31.5235,1.8478 31.3185,1.7458 C31.3115,1.7428 31.3045,1.7388 31.2975,1.7358 C31.2905,1.7318 31.2835,1.7288 31.2765,1.7258 L31.2765,1.7258 C31.2705,1.7228 31.2625,1.7188 31.2555,1.7158 C31.2485,1.7118 31.2415,1.7088 31.2355,1.7058 C31.2355,1.7048 31.2355,1.7048 31.2345,1.7048 C31.2275,1.7018 31.2205,1.6978 31.2135,1.6948 C31.2085,1.6928 31.2035,1.6898 31.1995,1.6878 C31.1965,1.6868 31.1945,1.6858 31.1935,1.6848 L31.1925,1.6848 C31.1875,1.6828 31.1835,1.6808 31.1785,1.6788 C31.1765,1.6778 31.1735,1.6768 31.1715,1.6758 L31.1705,1.6748 L31.1645,1.6718 C31.1615,1.6708 31.1595,1.6698 31.1565,1.6688 L31.1515,1.6658 C31.1505,1.6658 31.1505,1.6648 31.1495,1.6648 L31.1435,1.6618 C31.1415,1.6608 31.1385,1.6598 31.1365,1.6588 C31.1355,1.6588 31.1355,1.6588 31.1355,1.6578 C31.1335,1.6568 31.1315,1.6568 31.1295,1.6558 L31.1285,1.6548 C31.1255,1.6538 31.1235,1.6528 31.1215,1.6518 C31.1195,1.6508 31.1165,1.6498 31.1145,1.6488 C31.1145,1.6488 31.1135,1.6488 31.1135,1.6478 C31.1115,1.6468 31.1105,1.6468 31.1085,1.6458 L31.1075,1.6448 L31.1015,1.6418 L31.1005,1.6418 L31.0945,1.6398 C31.0935,1.6398 31.0925,1.6398 31.0925,1.6388 C31.0905,1.6378 31.0885,1.6378 31.0875,1.6368 C31.0865,1.6368 31.0865,1.6358 31.0855,1.6358 L31.0795,1.6328 L31.0785,1.6328 L31.0725,1.6298 C31.0715,1.6298 31.0715,1.6298 31.0705,1.6288 C31.0685,1.6288 31.0685,1.6278 31.0665,1.6268 C31.0655,1.6268 31.0655,1.6258 31.0645,1.6258 C31.0625,1.6248 31.0605,1.6238 31.0585,1.6238 C31.0585,1.6238 31.0585,1.6228 31.0575,1.6228 L31.0515,1.6198 C31.0505,1.6198 31.0505,1.6198 31.0495,1.6188 C31.0475,1.6188 31.0465,1.6178 31.0445,1.6168 C31.0445,1.6168 31.0435,1.6168 31.0425,1.6158 C31.0405,1.6158 31.0395,1.6148 31.0375,1.6138 C31.0365,1.6138 31.0355,1.6138 31.0355,1.6128 C31.0335,1.6118 31.0315,1.6118 31.0295,1.6108 C31.0285,1.6098 31.0285,1.6098 31.0275,1.6098 C31.0265,1.6088 31.0255,1.6078 31.0245,1.6078 C31.0235,1.6068 31.0225,1.6068 31.0215,1.6068 C31.0195,1.6058 31.0185,1.6048 31.0165,1.6038 C31.0155,1.6038 31.0145,1.6038 31.0145,1.6028 C31.0125,1.6028 31.0105,1.6018 31.0085,1.6008 C31.0085,1.6008 31.0075,1.6008 31.0065,1.6008 C31.0045,1.5998 31.0035,1.5998 31.0025,1.5988 C31.0015,1.5988 31.0005,1.5978 30.9995,1.5978 C30.9975,1.5968 30.9965,1.5958 30.9945,1.5958 C30.9935,1.5948 30.9925,1.5948 30.9925,1.5948 L30.9865,1.5918 C30.9865,1.5918 30.9855,1.5918 30.9855,1.5908 C30.9835,1.5908 30.9825,1.5898 30.9815,1.5898 C30.9805,1.5888 30.9795,1.5888 30.9785,1.5878 C30.9765,1.5878 30.9755,1.5868 30.9735,1.5858 C30.9725,1.5858 30.9715,1.5848 30.9705,1.5848 C30.9695,1.5838 30.9675,1.5838 30.9665,1.5828 C30.9655,1.5828 30.9645,1.5818 30.9635,1.5818 C30.9615,1.5808 30.9605,1.5808 30.9595,1.5798 C30.9585,1.5798 30.9575,1.5788 30.9565,1.5788 C30.9555,1.5778 30.9535,1.5768 30.9515,1.5768 C30.9505,1.5758 30.9495,1.5758 30.9475,1.5748 C30.9465,1.5748 30.9455,1.5738 30.9445,1.5728 C30.9435,1.5728 30.9435,1.5728 30.9425,1.5718 C30.9405,1.5718 30.9395,1.5708 30.9385,1.5708 C30.9375,1.5698 30.9365,1.5698 30.9355,1.5688 C30.9345,1.5688 30.9325,1.5678 30.9305,1.5668 C30.9295,1.5668 30.9285,1.5658 30.9265,1.5658 C30.9255,1.5648 30.9245,1.5648 30.9235,1.5638 C30.9225,1.5638 30.9215,1.5628 30.9195,1.5628 C30.9185,1.5618 30.9175,1.5618 30.9165,1.5608 C30.9155,1.5608 30.9145,1.5598 30.9135,1.5598 C30.9115,1.5588 30.9105,1.5588 30.9085,1.5588 C30.9075,1.5578 30.9065,1.5578 30.9045,1.5568 C30.9035,1.5568 30.9025,1.5558 30.9015,1.5558 C30.9015,1.5548 30.8995,1.5548 30.8985,1.5538 C30.8975,1.5538 30.8965,1.5538 30.8955,1.5528 C30.8945,1.5528 30.8935,1.5518 30.8925,1.5518 C30.8915,1.5508 30.8895,1.5508 30.8885,1.5498 C30.8875,1.5488 30.8845,1.5478 30.8835,1.5478 C30.8825,1.5468 30.8815,1.5468 30.8805,1.5468 C30.8795,1.5458 30.8775,1.5448 30.8765,1.5448 C30.8755,1.5448 30.8745,1.5438 30.8735,1.5438 C30.8725,1.5428 30.8715,1.5428 30.8705,1.5418 C30.8695,1.5418 30.8685,1.5418 30.8675,1.5408 C30.8655,1.5398 30.8625,1.5388 30.8605,1.5378 C30.8605,1.5378 30.8605,1.5378 30.8595,1.5368 C30.8575,1.5368 30.8565,1.5358 30.8555,1.5358 C30.8545,1.5348 30.8535,1.5348 30.8525,1.5348 C30.8515,1.5338 30.8505,1.5338 30.8485,1.5328 C30.8445,1.5318 30.8425,1.5298 30.8395,1.5288 C30.8385,1.5288 30.8375,1.5288 30.8375,1.5278 C30.8355,1.5278 30.8345,1.5268 30.8325,1.5268 C30.8325,1.5258 30.8315,1.5258 30.8305,1.5258 C30.8265,1.5238 30.8215,1.5218 30.8175,1.5198 C30.8175,1.5198 30.8165,1.5198 30.8155,1.5188 C30.8145,1.5188 30.8135,1.5178 30.8115,1.5168 L30.8095,1.5168 C30.8055,1.5158 30.8005,1.5138 30.7955,1.5118 C30.7945,1.5118 30.7945,1.5108 30.7935,1.5108 C30.7925,1.5108 30.7905,1.5098 30.7895,1.5088 L30.7875,1.5088 C30.7825,1.5068 30.7785,1.5048 30.7745,1.5028 C30.7735,1.5028 30.7735,1.5028 30.7725,1.5018 C30.7715,1.5018 30.7695,1.5008 30.7685,1.5008 C30.7675,1.4998 30.7675,1.4998 30.7665,1.4998 L30.7515,1.4938 C30.7515,1.4938 30.7505,1.4938 30.7505,1.4928 C30.7485,1.4928 30.7475,1.4918 30.7455,1.4918 C30.7455,1.4908 30.7445,1.4908 30.7445,1.4908 L30.7305,1.4848 L30.7295,1.4848 C30.7275,1.4838 30.7255,1.4828 30.7245,1.4828 C30.7235,1.4828 30.7235,1.4828 30.7235,1.4818 C30.7185,1.4798 30.7125,1.4778 30.7075,1.4758 C30.7055,1.4758 30.7035,1.4758 30.7015,1.4748 C30.6965,1.4728 30.6915,1.4708 30.6865,1.4678 L30.6855,1.4678 C30.6785,1.4658 30.6715,1.4628 30.6635,1.4598 C30.6565,1.4568 30.6495,1.4538 30.6425,1.4508 L30.6415,1.4508 C30.4625,1.3828 30.2795,1.3208 30.0935,1.2668 L30.0935,1.2668 Z M33.4695,3.3278 L32.7455,4.0178 C33.1485,4.4388 33.4925,4.9098 33.7725,5.4178 L34.6495,4.9358 C34.4495,4.5748 34.2235,4.2308 33.9715,3.9078 L33.9565,3.8908 L33.9565,3.8898 C33.9515,3.8838 33.9465,3.8778 33.9435,3.8718 C33.9425,3.8718 33.9425,3.8718 33.9425,3.8708 C33.9395,3.8668 33.9355,3.8628 33.9325,3.8588 C33.9325,3.8578 33.9315,3.8578 33.9315,3.8578 C33.9305,3.8568 33.9295,3.8548 33.9285,3.8538 L33.9275,3.8528 C33.9245,3.8488 33.9215,3.8458 33.9175,3.8408 L33.9165,3.8398 C33.9165,3.8388 33.9145,3.8378 33.9135,3.8368 C33.9135,3.8358 33.9125,3.8348 33.9125,3.8348 L33.9035,3.8228 C33.9025,3.8228 33.9025,3.8218 33.9015,3.8208 C33.9015,3.8198 33.9015,3.8188 33.9005,3.8178 L33.8985,3.8158 C33.8975,3.8138 33.8955,3.8118 33.8945,3.8108 C33.8935,3.8098 33.8925,3.8088 33.8925,3.8088 L33.8895,3.8058 C33.8895,3.8048 33.8885,3.8038 33.8875,3.8038 C33.8875,3.8028 33.8865,3.8018 33.8855,3.8008 C33.8845,3.7998 33.8835,3.7988 33.8835,3.7978 C33.8815,3.7968 33.8805,3.7948 33.8795,3.7928 C33.8785,3.7918 33.8775,3.7918 33.8775,3.7908 L33.8745,3.7878 C33.8745,3.7868 33.8735,3.7858 33.8725,3.7848 C33.8715,3.7838 33.8715,3.7828 33.8705,3.7818 C33.8695,3.7808 33.8675,3.7798 33.8665,3.7778 C33.8665,3.7768 33.8655,3.7758 33.8645,3.7758 C33.8635,3.7738 33.8625,3.7728 33.8615,3.7718 C33.8615,3.7708 33.8605,3.7708 33.8595,3.7698 C33.8595,3.7678 33.8585,3.7678 33.8585,3.7668 C33.8575,3.7668 33.8565,3.7658 33.8565,3.7648 C33.8555,3.7628 33.8535,3.7618 33.8525,3.7598 C33.8515,3.7588 33.8515,3.7588 33.8505,3.7588 C33.8495,3.7568 33.8485,3.7558 33.8475,3.7538 C33.8465,3.7538 33.8465,3.7528 33.8465,3.7528 C33.8445,3.7508 33.8435,3.7498 33.8425,3.7478 L33.8415,3.7468 C33.8405,3.7448 33.8385,3.7428 33.8365,3.7408 L33.8365,3.7398 C33.8345,3.7388 33.8335,3.7368 33.8325,3.7358 L33.8305,3.7338 C33.8295,3.7328 33.8285,3.7308 33.8265,3.7288 C33.8245,3.7268 33.8235,3.7258 33.8215,3.7238 C33.8215,3.7238 33.8215,3.7228 33.8205,3.7228 C33.8195,3.7208 33.8185,3.7198 33.8175,3.7178 L33.8165,3.7168 C33.8135,3.7128 33.8105,3.7088 33.8075,3.7058 C33.8075,3.7048 33.8065,3.7048 33.8065,3.7048 C33.8055,3.7028 33.8035,3.7008 33.8025,3.6998 L33.8015,3.6988 C33.7985,3.6948 33.7955,3.6908 33.7915,3.6868 C33.6885,3.5638 33.5805,3.4438 33.4695,3.3278 L33.4695,3.3278 Z M35.3725,6.7938 L34.4015,7.0318 C34.5275,7.5508 34.5925,8.0868 34.5925,8.6258 L34.5915,8.7578 L35.5915,8.7768 C35.5915,8.7418 35.5925,8.7078 35.5925,8.6728 L35.5925,8.6608 L35.5925,8.6578 L35.5925,8.6548 L35.5925,8.6518 L35.5925,8.6488 L35.5925,8.6438 L35.5925,8.6428 L35.5925,8.6388 L35.5925,8.6368 L35.5925,8.6328 L35.5925,8.6308 L35.5925,8.6258 L35.5925,8.6188 L35.5925,8.6168 L35.5925,8.6118 L35.5925,8.6088 L35.5925,8.6048 L35.5925,8.6018 L35.5925,8.5988 L35.5925,8.5958 L35.5925,8.5898 L35.5925,8.5888 L35.5925,8.5818 L35.5925,8.5798 L35.5925,8.5748 L35.5925,8.5718 L35.5925,8.5678 L35.5925,8.5648 L35.5925,8.5598 L35.5925,8.5588 L35.5925,8.5528 L35.5925,8.5518 L35.5925,8.5448 L35.5925,8.5428 L35.5925,8.5378 L35.5925,8.5348 L35.5925,8.5308 L35.5925,8.5278 L35.5925,8.5228 L35.5925,8.5208 L35.5925,8.5168 L35.5925,8.5148 C35.5915,8.5128 35.5915,8.5098 35.5915,8.5078 L35.5915,8.5058 L35.5915,8.5008 L35.5915,8.4988 L35.5915,8.4938 L35.5915,8.4908 L35.5915,8.4868 L35.5915,8.4838 L35.5915,8.4788 L35.5915,8.4768 L35.5915,8.4708 C35.5915,8.4678 35.5915,8.4658 35.5905,8.4638 L35.5905,8.4618 L35.5905,8.4568 L35.5905,8.4548 L35.5905,8.4498 L35.5905,8.4478 L35.5905,8.4418 L35.5905,8.4408 L35.5905,8.4268 L35.5905,8.4258 L35.5905,8.4198 C35.5905,8.4188 35.5905,8.4188 35.5895,8.4178 L35.5895,8.4128 L35.5895,8.4108 L35.5895,8.4058 L35.5895,8.4038 L35.5895,8.3968 L35.5895,8.3908 C35.5895,8.3898 35.5895,8.3888 35.5885,8.3888 L35.5885,8.3838 L35.5885,8.3818 L35.5885,8.3758 L35.5885,8.3738 L35.5885,8.3688 L35.5885,8.3668 L35.5885,8.3608 L35.5885,8.3598 C35.5885,8.3578 35.5885,8.3548 35.5875,8.3528 L35.5875,8.3518 L35.5875,8.3468 L35.5875,8.3448 L35.5875,8.3398 L35.5875,8.3378 L35.5875,8.3318 L35.5865,8.3308 L35.5865,8.3238 L35.5865,8.3088 L35.5865,8.3088 C35.5865,8.3068 35.5865,8.3048 35.5855,8.3028 L35.5855,8.3008 L35.5855,8.2958 L35.5855,8.2938 L35.5855,8.2878 L35.5855,8.2868 C35.5845,8.2818 35.5845,8.2768 35.5845,8.2728 L35.5845,8.2708 L35.5845,8.2658 L35.5845,8.2648 C35.5845,8.2628 35.5845,8.2608 35.5835,8.2588 L35.5835,8.2578 L35.5835,8.2508 C35.5835,8.2458 35.5825,8.2408 35.5825,8.2358 L35.5825,8.2288 L35.5825,8.2278 L35.5825,8.2218 L35.5825,8.2208 C35.5815,8.2188 35.5815,8.2168 35.5815,8.2148 L35.5815,8.2138 C35.5815,8.2068 35.5805,8.1998 35.5805,8.1918 L35.5805,8.1908 L35.5805,8.1848 L35.5805,8.1838 C35.5795,8.1828 35.5795,8.1808 35.5795,8.1788 L35.5795,8.1778 C35.5795,8.1698 35.5785,8.1628 35.5785,8.1558 L35.5785,8.1548 C35.5785,8.1528 35.5785,8.1508 35.5775,8.1488 L35.5775,8.1478 L35.5775,8.1418 L35.5775,8.1408 C35.5765,8.1338 35.5765,8.1268 35.5755,8.1188 L35.5755,8.1118 L35.5755,8.1108 C35.5755,8.1088 35.5755,8.1068 35.5745,8.1048 L35.5745,8.1038 L35.5745,8.0978 C35.5735,8.0908 35.5735,8.0828 35.5725,8.0758 L35.5725,8.0748 L35.5725,8.0688 L35.5725,8.0678 C35.5715,8.0588 35.5705,8.0488 35.5705,8.0398 C35.5385,7.6138 35.4715,7.1978 35.3725,6.7938 L35.3725,6.7938 Z M34.3335,10.4728 C34.1745,11.0288 33.9415,11.5628 33.6415,12.0608 L34.4975,12.5768 C34.8385,12.0118 35.1085,11.3968 35.2945,10.7488 L34.3335,10.4728 Z M32.5615,13.4188 C32.1435,13.8238 31.6745,14.1718 31.1685,14.4548 L31.6555,15.3278 C31.6565,15.3268 31.6575,15.3268 31.6585,15.3258 C31.6585,15.3258 31.6595,15.3258 31.6595,15.3248 C31.6615,15.3238 31.6625,15.3238 31.6645,15.3228 L31.6655,15.3218 C31.6685,15.3208 31.6715,15.3188 31.6745,15.3168 C31.6765,15.3158 31.6775,15.3148 31.6785,15.3148 C31.6795,15.3138 31.6805,15.3138 31.6805,15.3128 C31.6825,15.3128 31.6835,15.3118 31.6845,15.3108 L31.6865,15.3108 C31.6885,15.3088 31.6915,15.3088 31.6935,15.3068 C31.6935,15.3068 31.6945,15.3058 31.6945,15.3058 C31.6955,15.3048 31.6975,15.3048 31.6985,15.3038 C31.6995,15.3038 31.7005,15.3028 31.7015,15.3028 C31.7025,15.3018 31.7035,15.3008 31.7045,15.3008 L31.7065,15.2988 C31.7085,15.2978 31.7115,15.2968 31.7135,15.2958 C31.7145,15.2948 31.7155,15.2948 31.7155,15.2938 C31.7165,15.2938 31.7185,15.2928 31.7195,15.2918 C31.7205,15.2918 31.7215,15.2908 31.7215,15.2908 C31.7235,15.2898 31.7245,15.2888 31.7255,15.2888 C31.7275,15.2878 31.7285,15.2868 31.7305,15.2858 C31.7315,15.2848 31.7325,15.2848 31.7335,15.2838 C31.7345,15.2828 31.7355,15.2828 31.7355,15.2818 C31.7365,15.2818 31.7375,15.2808 31.7385,15.2798 C31.7395,15.2798 31.7415,15.2788 31.7425,15.2778 C31.7435,15.2778 31.7445,15.2768 31.7445,15.2768 L31.7505,15.2738 C31.7515,15.2728 31.7525,15.2728 31.7525,15.2718 C31.7545,15.2718 31.7555,15.2708 31.7565,15.2698 C31.7575,15.2698 31.7585,15.2688 31.7595,15.2688 C31.7605,15.2678 31.7625,15.2678 31.7635,15.2668 C31.7645,15.2668 31.7645,15.2658 31.7655,15.2658 L31.7715,15.2628 L31.7735,15.2608 C31.7745,15.2608 31.7765,15.2598 31.7765,15.2588 C31.7775,15.2588 31.7785,15.2578 31.7785,15.2578 C31.7805,15.2568 31.7825,15.2548 31.7845,15.2538 L31.7855,15.2538 L31.7915,15.2508 C31.7915,15.2498 31.7925,15.2498 31.7935,15.2488 C31.7945,15.2478 31.7965,15.2468 31.7975,15.2468 C31.7985,15.2458 31.7985,15.2458 31.7995,15.2458 C31.8015,15.2448 31.8035,15.2428 31.8055,15.2418 L31.8065,15.2418 C31.8085,15.2408 31.8105,15.2388 31.8115,15.2378 C31.8125,15.2378 31.8125,15.2378 31.8135,15.2368 C31.8155,15.2358 31.8175,15.2348 31.8185,15.2338 L31.8185,15.2338 C31.8215,15.2318 31.8235,15.2308 31.8255,15.2298 C31.8275,15.2278 31.8295,15.2268 31.8315,15.2258 C31.8325,15.2258 31.8325,15.2258 31.8325,15.2258 C31.8345,15.2248 31.8375,15.2238 31.8395,15.2228 L31.8395,15.2218 C31.8415,15.2208 31.8435,15.2198 31.8465,15.2178 L31.8525,15.2148 C31.8525,15.2138 31.8535,15.2138 31.8535,15.2138 C31.8585,15.2108 31.8615,15.2088 31.8655,15.2058 L31.8665,15.2058 C31.8685,15.2048 31.8705,15.2028 31.8725,15.2018 L31.8735,15.2018 C31.8775,15.1988 31.8815,15.1958 31.8865,15.1938 L31.8865,15.1928 C31.9005,15.1848 31.9125,15.1778 31.9265,15.1698 L31.9265,15.1688 C32.1575,15.0268 32.3815,14.8738 32.5955,14.7088 L32.5965,14.7078 C32.6085,14.6988 32.6205,14.6888 32.6325,14.6798 L32.6335,14.6798 L32.6515,14.6648 C32.6565,14.6608 32.6635,14.6558 32.6695,14.6508 C32.6735,14.6468 32.6785,14.6438 32.6825,14.6418 C32.6845,14.6398 32.6865,14.6378 32.6885,14.6368 C32.6925,14.6328 32.6955,14.6298 32.6995,14.6268 C32.6995,14.6268 32.7005,14.6268 32.7005,14.6258 C32.7025,14.6248 32.7045,14.6238 32.7055,14.6218 L32.7065,14.6218 C32.7105,14.6188 32.7145,14.6148 32.7185,14.6118 L32.7195,14.6118 L32.7365,14.5978 C32.7385,14.5958 32.7405,14.5938 32.7425,14.5928 C32.7445,14.5908 32.7465,14.5888 32.7485,14.5878 C32.7505,14.5858 32.7525,14.5848 32.7545,14.5828 C32.7545,14.5828 32.7555,14.5828 32.7555,14.5818 L32.7675,14.5728 L32.7675,14.5718 C32.7695,14.5708 32.7715,14.5688 32.7735,14.5678 L32.7735,14.5668 L32.7845,14.5588 C32.7845,14.5578 32.7855,14.5578 32.7855,14.5578 C32.7875,14.5568 32.7885,14.5548 32.7905,14.5538 L32.7915,14.5528 L32.8035,14.5438 L32.8035,14.5428 C32.8055,14.5408 32.8075,14.5398 32.8095,14.5378 C32.8115,14.5358 32.8135,14.5348 32.8155,14.5328 C32.8175,14.5308 32.8185,14.5298 32.8205,14.5278 L32.8215,14.5278 L32.8265,14.5228 C32.8285,14.5208 32.8305,14.5198 32.8325,14.5178 C32.8335,14.5178 32.8335,14.5178 32.8335,14.5178 C32.8355,14.5168 32.8365,14.5158 32.8385,14.5138 C32.8385,14.5138 32.8395,14.5138 32.8395,14.5128 C32.8415,14.5118 32.8435,14.5098 32.8445,14.5088 L32.8455,14.5078 C32.8475,14.5068 32.8495,14.5048 32.8505,14.5038 C32.8515,14.5028 32.8515,14.5028 32.8525,14.5028 C32.8535,14.5008 32.8555,14.4998 32.8565,14.4988 C32.8575,14.4988 32.8575,14.4978 32.8585,14.4978 C32.8595,14.4958 32.8605,14.4948 32.8625,14.4928 C32.8645,14.4908 32.8665,14.4898 32.8685,14.4878 C32.8685,14.4878 32.8695,14.4878 32.8695,14.4868 C32.8715,14.4858 32.8725,14.4848 32.8735,14.4838 C32.8745,14.4828 32.8755,14.4828 32.8755,14.4818 C32.8775,14.4808 32.8795,14.4788 32.8805,14.4778 C32.8815,14.4778 32.8815,14.4768 32.8815,14.4768 C32.8835,14.4758 32.8845,14.4758 32.8865,14.4738 C32.8865,14.4738 32.8875,14.4728 32.8885,14.4728 C32.8895,14.4708 32.8905,14.4698 32.8915,14.4688 C32.8925,14.4688 32.8935,14.4678 32.8935,14.4678 C32.8955,14.4658 32.8975,14.4648 32.8995,14.4628 L32.9005,14.4618 C32.9015,14.4608 32.9025,14.4598 32.9035,14.4588 L32.9055,14.4568 C32.9065,14.4558 32.9085,14.4548 32.9095,14.4538 C32.9095,14.4528 32.9105,14.4528 32.9105,14.4518 C32.9125,14.4508 32.9145,14.4488 32.9165,14.4478 C32.9165,14.4468 32.9165,14.4468 32.9175,14.4468 L32.9215,14.4428 C32.9225,14.4428 32.9225,14.4418 32.9235,14.4418 C32.9245,14.4398 32.9265,14.4388 32.9275,14.4378 L32.9285,14.4368 C32.9305,14.4348 32.9325,14.4338 32.9345,14.4328 L32.9355,14.4318 C32.9365,14.4308 32.9385,14.4298 32.9395,14.4288 L32.9415,14.4268 C32.9425,14.4258 32.9435,14.4238 32.9455,14.4228 L32.9455,14.4218 C32.9475,14.4208 32.9495,14.4188 32.9515,14.4178 C32.9515,14.4168 32.9525,14.4168 32.9525,14.4158 C32.9535,14.4148 32.9555,14.4138 32.9565,14.4128 L32.9585,14.4108 C32.9595,14.4098 32.9615,14.4088 32.9635,14.4068 L32.9645,14.4058 L32.9685,14.4018 C32.9695,14.4018 32.9705,14.4008 32.9705,14.3998 C32.9725,14.3988 32.9735,14.3978 32.9745,14.3968 C32.9755,14.3968 32.9755,14.3958 32.9765,14.3958 C32.9775,14.3938 32.9795,14.3928 32.9815,14.3918 C32.9815,14.3918 32.9825,14.3908 32.9835,14.3908 L32.9855,14.3878 L32.9875,14.3858 C32.9885,14.3848 32.9905,14.3838 32.9915,14.3828 C32.9915,14.3818 32.9925,14.3808 32.9935,14.3808 L32.9985,14.3758 C32.9985,14.3758 32.9995,14.3758 33.0005,14.3748 L33.0035,14.3718 L33.0055,14.3698 C33.0065,14.3688 33.0085,14.3678 33.0095,14.3668 C33.0105,14.3658 33.0105,14.3658 33.0105,14.3648 C33.0125,14.3638 33.0145,14.3618 33.0165,14.3608 C33.0165,14.3598 33.0175,14.3588 33.0185,14.3588 L33.0215,14.3558 L33.0235,14.3538 L33.0265,14.3508 C33.0265,14.3508 33.0275,14.3508 33.0285,14.3498 L33.0325,14.3458 C33.0335,14.3448 33.0345,14.3448 33.0355,14.3438 C33.0355,14.3428 33.0375,14.3418 33.0385,14.3408 L33.0405,14.3388 C33.0415,14.3378 33.0425,14.3368 33.0445,14.3358 C33.0445,14.3348 33.0455,14.3338 33.0465,14.3338 L33.0505,14.3298 L33.0525,14.3278 L33.0555,14.3248 C33.0565,14.3248 33.0575,14.3238 33.0575,14.3228 C33.0595,14.3218 33.0605,14.3208 33.0625,14.3188 C33.0635,14.3188 33.0635,14.3178 33.0645,14.3168 C33.0655,14.3158 33.0665,14.3148 33.0685,14.3138 L33.0695,14.3118 L33.0725,14.3088 C33.0735,14.3088 33.0745,14.3088 33.0745,14.3078 C33.0765,14.3068 33.0775,14.3048 33.0795,14.3038 L33.0815,14.3018 L33.0845,14.2988 C33.0855,14.2978 33.0865,14.2978 33.0865,14.2968 C33.0885,14.2958 33.0895,14.2948 33.0905,14.2938 L33.0925,14.2918 L33.0965,14.2878 C33.0975,14.2868 33.0985,14.2868 33.0995,14.2858 L33.1025,14.2828 C33.1025,14.2818 33.1035,14.2818 33.1045,14.2808 L33.1075,14.2778 C33.1085,14.2768 33.1095,14.2768 33.1095,14.2758 C33.1105,14.2748 33.1115,14.2728 33.1135,14.2718 L33.1155,14.2698 L33.1185,14.2678 C33.1195,14.2668 33.1205,14.2668 33.1215,14.2658 L33.1245,14.2628 L33.1275,14.2598 C33.1285,14.2588 33.1295,14.2578 33.1315,14.2568 C33.1315,14.2558 33.1325,14.2548 33.1335,14.2548 L33.1365,14.2518 L33.1385,14.2498 L33.1415,14.2468 C33.1425,14.2458 33.1445,14.2448 33.1455,14.2438 L33.1485,14.2408 C33.1495,14.2398 33.1495,14.2388 33.1505,14.2378 C33.1515,14.2378 33.1515,14.2368 33.1525,14.2358 C33.1535,14.2348 33.1545,14.2338 33.1545,14.2328 C33.1565,14.2318 33.1575,14.2308 33.1585,14.2298 L33.1615,14.2268 C33.1625,14.2258 33.1635,14.2258 33.1645,14.2258 L33.1675,14.2228 L33.1695,14.2208 L33.1725,14.2178 L33.1765,14.2138 C33.1775,14.2128 33.1785,14.2128 33.1795,14.2118 L33.1825,14.2088 C33.1825,14.2078 33.1835,14.2068 33.1845,14.2068 L33.1875,14.2038 C33.1885,14.2038 33.1885,14.2028 33.1895,14.2018 C33.1915,14.1998 33.1925,14.1988 33.1935,14.1978 C33.1945,14.1968 33.1945,14.1958 33.1955,14.1948 C33.1965,14.1948 33.1975,14.1938 33.1985,14.1928 C33.1995,14.1918 33.1995,14.1908 33.2005,14.1898 C33.2015,14.1898 33.2025,14.1888 33.2035,14.1878 L33.2065,14.1848 C33.2075,14.1838 33.2095,14.1838 33.2105,14.1818 C33.2115,14.1818 33.2125,14.1808 33.2125,14.1798 L33.2155,14.1768 C33.2165,14.1768 33.2175,14.1758 33.2175,14.1748 C33.2195,14.1738 33.2205,14.1728 33.2215,14.1718 L33.2245,14.1688 L33.2275,14.1658 L33.2295,14.1638 L33.2325,14.1608 C33.2335,14.1598 33.2345,14.1588 33.2345,14.1588 C33.2355,14.1568 33.2365,14.1568 33.2375,14.1548 L33.2405,14.1518 L33.2435,14.1488 C33.2445,14.1488 33.2455,14.1478 33.2465,14.1468 C33.2475,14.1458 33.2485,14.1448 33.2485,14.1438 C33.2495,14.1438 33.2505,14.1428 33.2515,14.1428 L33.2545,14.1398 L33.2565,14.1378 L32.5615,13.4188 Z M29.5585,15.0948 C29.0265,15.2278 28.4765,15.2958 27.9225,15.2958 L27.8345,15.2958 L27.8205,16.2958 L27.9155,16.2958 L27.9225,16.2958 L27.9295,16.2958 L27.9315,16.2958 L27.9365,16.2958 L27.9395,16.2958 L27.9435,16.2958 L27.9455,16.2958 L27.9505,16.2958 L27.9525,16.2958 L27.9595,16.2958 L27.9615,16.2958 L27.9665,16.2958 L27.9695,16.2958 L27.9745,16.2958 L27.9765,16.2958 L27.9815,16.2958 L27.9835,16.2958 L27.9905,16.2958 L27.9975,16.2958 L27.9995,16.2958 L28.0045,16.2958 L28.0065,16.2958 L28.0115,16.2958 L28.0145,16.2958 L28.0205,16.2958 L28.0215,16.2958 L28.0275,16.2958 L28.0295,16.2958 L28.0345,16.2958 L28.0375,16.2958 L28.0415,16.2958 L28.0445,16.2958 C28.0465,16.2958 28.0475,16.2948 28.0495,16.2948 L28.0515,16.2948 L28.0585,16.2948 L28.0605,16.2948 L28.0655,16.2948 L28.0685,16.2948 L28.0725,16.2948 L28.0745,16.2948 L28.0795,16.2948 L28.0825,16.2948 L28.0875,16.2948 L28.0895,16.2948 C28.0915,16.2948 28.0935,16.2948 28.0965,16.2938 L28.0985,16.2938 L28.1035,16.2938 L28.1055,16.2938 L28.1095,16.2938 L28.1125,16.2938 L28.1175,16.2938 L28.1195,16.2938 L28.1265,16.2938 L28.1275,16.2938 L28.1335,16.2938 L28.1355,16.2938 C28.1375,16.2928 28.1395,16.2928 28.1405,16.2928 L28.1435,16.2928 L28.1485,16.2928 L28.1505,16.2928 L28.1565,16.2928 L28.1635,16.2928 L28.1655,16.2928 C28.1675,16.2928 28.1695,16.2918 28.1705,16.2918 L28.1735,16.2918 L28.1785,16.2918 L28.1805,16.2918 L28.1865,16.2918 L28.1875,16.2918 L28.1935,16.2918 L28.1955,16.2918 C28.1975,16.2918 28.1995,16.2908 28.2015,16.2908 L28.2035,16.2908 L28.2085,16.2908 L28.2105,16.2908 L28.2165,16.2908 L28.2175,16.2908 C28.2225,16.2908 28.2275,16.2898 28.2325,16.2898 L28.2345,16.2898 L28.2385,16.2898 L28.2405,16.2898 L28.2465,16.2898 L28.2475,16.2898 C28.2495,16.2888 28.2515,16.2888 28.2535,16.2888 L28.2555,16.2888 L28.2625,16.2888 L28.2635,16.2888 L28.2695,16.2888 C28.2705,16.2888 28.2705,16.2888 28.2715,16.2878 L28.2765,16.2878 L28.2775,16.2878 L28.2835,16.2878 L28.2855,16.2878 C28.2895,16.2878 28.2945,16.2868 28.2995,16.2868 L28.3015,16.2868 L28.3065,16.2868 L28.3085,16.2868 C28.3105,16.2868 28.3125,16.2858 28.3145,16.2858 L28.3155,16.2858 L28.3295,16.2858 L28.3305,16.2858 C28.3325,16.2848 28.3345,16.2848 28.3365,16.2848 L28.3385,16.2848 L28.3445,16.2848 L28.3465,16.2848 C28.3485,16.2848 28.3505,16.2838 28.3525,16.2838 L28.3535,16.2838 L28.3665,16.2838 C28.3675,16.2838 28.3675,16.2828 28.3685,16.2828 L28.3735,16.2828 L28.3755,16.2828 L28.3815,16.2828 L28.3835,16.2828 C28.3875,16.2818 28.3925,16.2818 28.3975,16.2818 L28.3995,16.2818 C28.4005,16.2818 28.4015,16.2808 28.4035,16.2808 L28.4055,16.2808 L28.4115,16.2808 L28.4125,16.2808 C28.4145,16.2808 28.4165,16.2798 28.4185,16.2798 L28.4205,16.2798 C28.4245,16.2798 28.4295,16.2798 28.4345,16.2788 L28.4365,16.2788 L28.4415,16.2788 L28.4435,16.2788 C28.4445,16.2778 28.4465,16.2778 28.4485,16.2778 L28.4495,16.2778 C28.4545,16.2778 28.4595,16.2778 28.4645,16.2768 L28.4655,16.2768 L28.4715,16.2768 L28.4735,16.2768 C28.4755,16.2758 28.4775,16.2758 28.4795,16.2758 L28.4805,16.2758 C28.4845,16.2758 28.4895,16.2748 28.4945,16.2748 C28.4965,16.2748 28.4995,16.2748 28.5015,16.2738 L28.5025,16.2738 L28.5085,16.2738 L28.5105,16.2738 C28.5125,16.2738 28.5145,16.2728 28.5165,16.2728 L28.5175,16.2728 C28.5225,16.2728 28.5265,16.2718 28.5315,16.2718 L28.5325,16.2718 L28.5385,16.2718 L28.5395,16.2708 L28.5455,16.2708 L28.5475,16.2708 C28.5495,16.2708 28.5515,16.2698 28.5545,16.2698 C28.5595,16.2698 28.5645,16.2688 28.5685,16.2688 L28.5695,16.2688 C28.5715,16.2688 28.5735,16.2688 28.5755,16.2678 L28.5765,16.2678 L28.5835,16.2678 L28.5845,16.2678 C28.5895,16.2678 28.5945,16.2678 28.5985,16.2668 L28.5995,16.2668 L28.6065,16.2668 L28.6075,16.2668 C28.6095,16.2658 28.6105,16.2658 28.6125,16.2658 L28.6135,16.2658 C28.6185,16.2648 28.6235,16.2648 28.6285,16.2648 C28.6315,16.2638 28.6335,16.2638 28.6355,16.2638 L28.6375,16.2638 C28.6395,16.2638 28.6405,16.2628 28.6425,16.2628 L28.6445,16.2628 L28.6515,16.2628 C28.6555,16.2618 28.6605,16.2618 28.6655,16.2608 L28.6665,16.2608 C28.6685,16.2608 28.6705,16.2608 28.6725,16.2598 L28.6735,16.2598 L28.6805,16.2598 C28.6865,16.2588 28.6905,16.2588 28.6945,16.2578 L28.6955,16.2578 C28.6975,16.2578 28.6995,16.2578 28.7025,16.2568 L28.7035,16.2568 L28.7095,16.2568 L28.7105,16.2568 C28.7175,16.2558 28.7255,16.2548 28.7325,16.2538 L28.7335,16.2538 C28.7345,16.2538 28.7365,16.2538 28.7385,16.2528 L28.7405,16.2528 L28.7465,16.2528 L28.7475,16.2528 C28.7525,16.2518 28.7565,16.2508 28.7615,16.2508 L28.7625,16.2508 C28.7645,16.2508 28.7665,16.2498 28.7685,16.2498 L28.7705,16.2498 C28.7725,16.2498 28.7745,16.2498 28.7765,16.2488 L28.7765,16.2488 C28.7835,16.2478 28.7915,16.2478 28.7985,16.2468 L28.7995,16.2468 C28.8015,16.2458 28.8035,16.2458 28.8055,16.2458 L28.8075,16.2458 C28.8095,16.2458 28.8115,16.2448 28.8135,16.2448 L28.8145,16.2448 C28.8185,16.2438 28.8225,16.2438 28.8275,16.2428 L28.8285,16.2428 C28.8305,16.2428 28.8325,16.2428 28.8345,16.2418 L28.8365,16.2418 L28.8425,16.2418 C28.8425,16.2408 28.8435,16.2408 28.8435,16.2408 L28.8505,16.2408 C28.8535,16.2398 28.8555,16.2398 28.8585,16.2398 C28.8595,16.2388 28.8615,16.2388 28.8645,16.2388 L28.8655,16.2388 C28.8675,16.2378 28.8695,16.2378 28.8715,16.2378 L28.8735,16.2378 C28.8755,16.2368 28.8765,16.2368 28.8785,16.2368 L28.8805,16.2368 C28.8855,16.2358 28.8895,16.2358 28.8945,16.2348 L28.8955,16.2348 C28.8975,16.2348 28.8995,16.2338 28.9015,16.2338 L28.9025,16.2338 C28.9045,16.2338 28.9065,16.2328 28.9075,16.2328 L28.9095,16.2328 C28.9145,16.2318 28.9195,16.2318 28.9235,16.2308 L28.9245,16.2308 C28.9265,16.2308 28.9285,16.2308 28.9305,16.2298 L28.9325,16.2298 C28.9345,16.2298 28.9365,16.2288 28.9375,16.2288 L28.9405,16.2288 C28.9415,16.2288 28.9435,16.2288 28.9445,16.2278 L28.9455,16.2278 C28.9485,16.2278 28.9505,16.2268 28.9535,16.2268 C28.9555,16.2268 28.9575,16.2268 28.9595,16.2258 L28.9615,16.2258 C28.9635,16.2258 28.9655,16.2258 28.9665,16.2258 L28.9695,16.2258 C28.9705,16.2258 28.9725,16.2258 28.9735,16.2248 L28.9765,16.2248 C28.9785,16.2248 28.9805,16.2238 28.9825,16.2238 L28.9835,16.2238 C28.9845,16.2238 28.9865,16.2228 28.9895,16.2228 L28.9905,16.2228 C28.9925,16.2228 28.9945,16.2218 28.9965,16.2218 L28.9985,16.2218 C29.0005,16.2218 29.0015,16.2208 29.0035,16.2208 L29.0055,16.2208 C29.0075,16.2198 29.0085,16.2198 29.0105,16.2198 L29.0125,16.2198 C29.0145,16.2188 29.0175,16.2188 29.0195,16.2188 L29.0205,16.2188 C29.0225,16.2178 29.0245,16.2178 29.0265,16.2178 C29.0265,16.2178 29.0265,16.2178 29.0275,16.2168 L29.0325,16.2168 C29.0335,16.2168 29.0335,16.2168 29.0345,16.2158 L29.0395,16.2158 C29.0405,16.2158 29.0405,16.2158 29.0415,16.2148 L29.0475,16.2148 C29.0475,16.2138 29.0485,16.2138 29.0485,16.2138 C29.0505,16.2138 29.0535,16.2138 29.0555,16.2128 L29.0575,16.2128 C29.0595,16.2128 29.0605,16.2128 29.0625,16.2118 L29.0655,16.2118 C29.0665,16.2118 29.0675,16.2118 29.0685,16.2108 L29.0705,16.2108 C29.0725,16.2108 29.0745,16.2098 29.0755,16.2098 L29.0775,16.2098 C29.0805,16.2098 29.0825,16.2088 29.0845,16.2088 C29.0855,16.2088 29.0855,16.2088 29.0865,16.2078 L29.0915,16.2078 C29.0925,16.2078 29.0935,16.2078 29.0945,16.2068 L29.0985,16.2068 C29.0985,16.2068 29.1005,16.2058 29.1015,16.2058 L29.1045,16.2058 C29.1065,16.2058 29.1065,16.2048 29.1085,16.2048 L29.1105,16.2048 C29.1125,16.2038 29.1155,16.2038 29.1175,16.2038 C29.1185,16.2038 29.1195,16.2028 29.1205,16.2028 L29.1235,16.2028 C29.1245,16.2018 29.1255,16.2018 29.1265,16.2018 L29.1305,16.2018 C29.1315,16.2008 29.1325,16.2008 29.1335,16.2008 C29.1345,16.2008 29.1365,16.2008 29.1375,16.1998 L29.1405,16.1998 C29.1455,16.1988 29.1495,16.1978 29.1535,16.1978 C29.1545,16.1978 29.1545,16.1978 29.1555,16.1968 L29.1605,16.1968 C29.1605,16.1968 29.1615,16.1958 29.1625,16.1958 L29.1665,16.1958 C29.1675,16.1958 29.1685,16.1948 29.1685,16.1948 C29.1735,16.1938 29.1785,16.1938 29.1845,16.1928 C29.1845,16.1928 29.1855,16.1928 29.1855,16.1918 L29.1905,16.1918 C29.1905,16.1918 29.1915,16.1918 29.1925,16.1908 L29.1955,16.1908 C29.1965,16.1898 29.1975,16.1898 29.1975,16.1898 L29.2025,16.1898 C29.2025,16.1888 29.2035,16.1888 29.2035,16.1888 C29.2085,16.1878 29.2145,16.1868 29.2205,16.1858 L29.2215,16.1858 C29.2235,16.1858 29.2245,16.1858 29.2265,16.1848 L29.2275,16.1848 C29.2295,16.1848 29.2315,16.1848 29.2335,16.1838 C29.2405,16.1838 29.2485,16.1828 29.2565,16.1808 C29.2585,16.1808 29.2605,16.1798 29.2625,16.1798 C29.4445,16.1468 29.6245,16.1088 29.8025,16.0638 L29.5585,15.0948 Z M24.5245,14.3668 L24.0145,15.2268 L24.0165,15.2288 C24.0175,15.2288 24.0185,15.2298 24.0195,15.2298 C24.0205,15.2308 24.0215,15.2318 24.0225,15.2318 C24.0235,15.2328 24.0245,15.2328 24.0265,15.2338 C24.0265,15.2348 24.0275,15.2348 24.0275,15.2358 C24.0295,15.2368 24.0305,15.2368 24.0315,15.2378 C24.0325,15.2388 24.0335,15.2388 24.0345,15.2398 C24.0365,15.2408 24.0375,15.2418 24.0395,15.2428 C24.0405,15.2428 24.0415,15.2428 24.0415,15.2438 C24.0435,15.2448 24.0445,15.2448 24.0455,15.2458 C24.0465,15.2468 24.0475,15.2468 24.0475,15.2478 L24.0535,15.2508 L24.0545,15.2508 C24.0565,15.2518 24.0585,15.2528 24.0605,15.2548 C24.0605,15.2548 24.0615,15.2548 24.0615,15.2558 C24.0635,15.2568 24.0655,15.2568 24.0665,15.2578 C24.0675,15.2588 24.0675,15.2588 24.0685,15.2588 C24.0715,15.2618 24.0755,15.2638 24.0795,15.2668 L24.0815,15.2668 C24.0825,15.2678 24.0845,15.2688 24.0865,15.2698 L24.0875,15.2698 C24.0925,15.2728 24.0965,15.2748 24.1005,15.2778 L24.1015,15.2778 C24.1035,15.2788 24.1055,15.2798 24.1075,15.2818 L24.1085,15.2818 C24.1115,15.2848 24.1155,15.2868 24.1205,15.2898 L24.1215,15.2898 C24.1235,15.2908 24.1255,15.2918 24.1275,15.2938 C24.1325,15.2958 24.1365,15.2988 24.1415,15.3018 C24.6735,15.6028 25.2455,15.8438 25.8475,16.0128 L26.1165,15.0498 C25.5595,14.8928 25.0245,14.6638 24.5245,14.3668 L24.5245,14.3668 Z M22.1145,11.9098 L21.2445,12.4028 C21.4825,12.8218 21.7575,13.2168 22.0675,13.5808 C22.0685,13.5828 22.0695,13.5848 22.0715,13.5868 C22.0745,13.5908 22.0785,13.5948 22.0815,13.5988 L22.0825,13.5998 C22.0835,13.6008 22.0855,13.6018 22.0865,13.6038 L22.0875,13.6048 C22.0905,13.6088 22.0935,13.6128 22.0975,13.6158 L22.0975,13.6168 C22.0995,13.6188 22.1005,13.6208 22.1025,13.6228 C22.1045,13.6248 22.1065,13.6268 22.1075,13.6288 L22.1085,13.6288 C22.1095,13.6308 22.1105,13.6328 22.1115,13.6338 C22.1115,13.6348 22.1125,13.6348 22.1125,13.6348 C22.1145,13.6368 22.1155,13.6388 22.1175,13.6408 C22.1195,13.6428 22.1205,13.6438 22.1225,13.6458 C22.1245,13.6478 22.1255,13.6498 22.1275,13.6508 C22.1275,13.6518 22.1275,13.6518 22.1285,13.6528 C22.1315,13.6558 22.1345,13.6598 22.1375,13.6638 C22.1385,13.6638 22.1385,13.6648 22.1385,13.6648 C22.1405,13.6658 22.1415,13.6678 22.1425,13.6688 C22.1435,13.6698 22.1435,13.6698 22.1435,13.6708 C22.1455,13.6718 22.1475,13.6738 22.1485,13.6758 C22.1505,13.6778 22.1515,13.6798 22.1525,13.6818 L22.1535,13.6828 L22.1575,13.6858 C22.1575,13.6868 22.1585,13.6868 22.1585,13.6878 C22.1605,13.6888 22.1625,13.6908 22.1635,13.6928 L22.1645,13.6938 C22.1655,13.6948 22.1665,13.6968 22.1685,13.6978 C22.1685,13.6988 22.1695,13.6998 22.1695,13.6998 L22.1735,13.7038 C22.1735,13.7048 22.1745,13.7048 22.1745,13.7058 C22.1765,13.7068 22.1775,13.7088 22.1795,13.7108 C22.1795,13.7108 22.1795,13.7118 22.1805,13.7118 C22.1815,13.7128 22.1825,13.7148 22.1845,13.7158 C22.1845,13.7168 22.1845,13.7168 22.1855,13.7178 C22.1865,13.7188 22.1875,13.7198 22.1885,13.7218 C22.1895,13.7218 22.1905,13.7228 22.1905,13.7238 C22.1925,13.7248 22.1935,13.7258 22.1935,13.7268 L22.1955,13.7288 C22.1965,13.7308 22.1975,13.7318 22.1985,13.7328 L22.2005,13.7348 C22.2015,13.7358 22.2025,13.7368 22.2035,13.7388 C22.2045,13.7388 22.2045,13.7398 22.2055,13.7398 C22.2065,13.7418 22.2085,13.7428 22.2095,13.7448 L22.2115,13.7468 C22.2125,13.7478 22.2135,13.7488 22.2145,13.7508 C22.2155,13.7508 22.2155,13.7518 22.2165,13.7528 L22.2195,13.7558 L22.2225,13.7588 C22.2235,13.7598 22.2245,13.7608 22.2255,13.7628 C22.2265,13.7628 22.2275,13.7638 22.2275,13.7648 L22.2305,13.7678 C22.2315,13.7678 22.2315,13.7688 22.2325,13.7698 L22.2355,13.7728 L22.2375,13.7758 L22.2405,13.7788 C22.2415,13.7798 22.2425,13.7808 22.2425,13.7818 L22.2455,13.7848 L22.2475,13.7868 L22.2505,13.7898 C22.2515,13.7918 22.2525,13.7928 22.2545,13.7938 C22.2545,13.7948 22.2555,13.7958 22.2565,13.7968 C22.2575,13.7978 22.2585,13.7988 22.2585,13.7998 C22.2595,13.7998 22.2605,13.8008 22.2605,13.8018 C22.2625,13.8028 22.2625,13.8038 22.2635,13.8048 L22.2645,13.8048 C22.2665,13.8078 22.2685,13.8088 22.2705,13.8108 C22.2715,13.8118 22.2715,13.8128 22.2725,13.8128 L22.2755,13.8158 C22.2755,13.8168 22.2765,13.8168 22.2765,13.8178 C22.2795,13.8218 22.2825,13.8248 22.2855,13.8288 C22.2865,13.8288 22.2865,13.8298 22.2875,13.8308 L22.2905,13.8338 L22.2915,13.8348 C22.2935,13.8378 22.2965,13.8398 22.2985,13.8428 L22.3015,13.8458 L22.3035,13.8478 L22.3065,13.8508 C22.3065,13.8508 22.3075,13.8508 22.3075,13.8508 C22.3115,13.8548 22.3145,13.8588 22.3185,13.8628 C22.3185,13.8628 22.3185,13.8638 22.3185,13.8638 C22.3225,13.8678 22.3255,13.8718 22.3295,13.8758 L22.3335,13.8798 C22.3335,13.8808 22.3345,13.8808 22.3345,13.8808 C22.3385,13.8848 22.3415,13.8888 22.3465,13.8928 L22.3465,13.8928 L22.3505,13.8968 C22.3545,13.9008 22.3585,13.9048 22.3615,13.9098 C22.3895,13.9378 22.4165,13.9678 22.4445,13.9958 L23.1585,13.2958 C22.7515,12.8808 22.4005,12.4138 22.1145,11.9098 L22.1145,11.9098 Z M20.2515,8.5748 L20.2515,8.6258 L20.2515,8.6328 L20.2515,8.6348 L20.2515,8.6398 L20.2515,8.6418 L20.2515,8.6468 L20.2515,8.6488 L20.2515,8.6568 L20.2515,8.6578 L20.2515,8.6638 L20.2515,8.6658 L20.2515,8.6708 L20.2515,8.6738 L20.2515,8.6788 L20.2515,8.6808 L20.2515,8.6868 L20.2515,8.6888 L20.2515,8.6948 L20.2515,8.6968 L20.2515,8.7018 L20.2515,8.7048 L20.2515,8.7098 L20.2515,8.7118 C20.2515,8.7138 20.2515,8.7168 20.2525,8.7188 L20.2525,8.7208 L20.2525,8.7258 L20.2525,8.7278 L20.2525,8.7328 L20.2525,8.7358 L20.2525,8.7408 L20.2525,8.7428 L20.2525,8.7498 L20.2525,8.7518 L20.2525,8.7568 L20.2525,8.7598 L20.2525,8.7648 L20.2525,8.7668 L20.2525,8.7718 L20.2525,8.7738 L20.2525,8.7808 L20.2525,8.7828 C20.2525,8.7848 20.2535,8.7858 20.2535,8.7878 L20.2535,8.7908 L20.2535,8.7958 L20.2535,8.7978 L20.2535,8.8038 L20.2535,8.8048 L20.2535,8.8118 L20.2535,8.8138 L20.2535,8.8188 L20.2535,8.8208 C20.2535,8.8228 20.2545,8.8248 20.2545,8.8258 L20.2545,8.8288 L20.2545,8.8348 L20.2545,8.8358 L20.2545,8.8428 L20.2545,8.8458 L20.2545,8.8498 L20.2545,8.8518 L20.2545,8.8568 L20.2545,8.8598 C20.2545,8.8618 20.2555,8.8638 20.2555,8.8658 L20.2555,8.8678 L20.2555,8.8738 L20.2555,8.8768 L20.2555,8.8808 L20.2555,8.8838 L20.2555,8.8878 C20.2555,8.8888 20.2565,8.8898 20.2565,8.8908 L20.2565,8.8968 L20.2565,8.8998 L20.2565,8.9038 L20.2565,8.9078 L20.2565,8.9118 L20.2565,8.9148 L20.2565,8.9188 C20.2565,8.9198 20.2575,8.9208 20.2575,8.9218 L20.2575,8.9288 L20.2575,8.9318 L20.2575,8.9348 L20.2575,8.9378 C20.2575,8.9398 20.2575,8.9408 20.2585,8.9418 L20.2585,8.9448 L20.2585,8.9498 L20.2585,8.9528 L20.2585,8.9588 L20.2585,8.9618 L20.2585,8.9658 C20.2585,8.9678 20.2595,8.9688 20.2595,8.9698 L20.2595,8.9738 L20.2595,8.9758 L20.2595,8.9798 L20.2595,8.9828 C20.2595,8.9848 20.2605,8.9878 20.2605,8.9898 L20.2605,8.9928 L20.2605,8.9968 L20.2605,8.9998 L20.2605,9.0038 L20.2605,9.0068 C20.2605,9.0088 20.2615,9.0098 20.2615,9.0118 L20.2615,9.0148 L20.2615,9.0198 L20.2615,9.0228 C20.2615,9.0248 20.2615,9.0258 20.2625,9.0278 L20.2625,9.0308 L20.2625,9.0348 L20.2625,9.0378 L20.2625,9.0418 L20.2625,9.0468 C20.2635,9.0478 20.2635,9.0498 20.2635,9.0518 L20.2635,9.0548 L20.2635,9.0588 L20.2635,9.0618 C20.2635,9.0628 20.2645,9.0638 20.2645,9.0648 L20.2645,9.0688 L20.2645,9.0718 L20.2645,9.0788 L20.2645,9.0818 C20.2655,9.0838 20.2655,9.0848 20.2655,9.0858 L20.2655,9.0888 L20.2655,9.0928 L20.2655,9.0958 C20.2665,9.0968 20.2665,9.0988 20.2665,9.0998 L20.2665,9.1008 L20.2665,9.1108 L20.2665,9.1118 C20.2665,9.1138 20.2675,9.1148 20.2675,9.1168 L20.2675,9.1188 L20.2675,9.1238 L20.2675,9.1258 C20.2675,9.1268 20.2685,9.1288 20.2685,9.1308 L20.2685,9.1418 L20.2685,9.1428 C20.2695,9.1438 20.2695,9.1458 20.2695,9.1468 L20.2695,9.1488 L20.2695,9.1538 L20.2695,9.1558 C20.2705,9.1608 20.2705,9.1668 20.2705,9.1718 C20.2705,9.1728 20.2715,9.1728 20.2715,9.1738 L20.2715,9.1788 L20.2715,9.1808 C20.2715,9.1818 20.2715,9.1838 20.2725,9.1848 L20.2725,9.1858 C20.2725,9.1918 20.2725,9.1968 20.2735,9.2018 L20.2735,9.2038 L20.2735,9.2088 L20.2735,9.2108 C20.2745,9.2128 20.2745,9.2138 20.2745,9.2158 L20.2745,9.2168 C20.2745,9.2228 20.2755,9.2268 20.2755,9.2328 L20.2755,9.2338 C20.2755,9.2358 20.2765,9.2378 20.2765,9.2388 L20.2765,9.2408 L20.2765,9.2458 C20.2765,9.2518 20.2765,9.2578 20.2775,9.2638 L20.2775,9.2648 L20.2775,9.2698 L20.2775,9.2708 C20.2785,9.2778 20.2795,9.2868 20.2795,9.2948 C20.2795,9.2968 20.2805,9.2988 20.2805,9.3008 L20.2805,9.3018 C20.2815,9.3088 20.2815,9.3168 20.2825,9.3248 C20.2825,9.3278 20.2835,9.3288 20.2835,9.3308 L20.2835,9.3318 C20.2835,9.3398 20.2845,9.3478 20.2855,9.3548 L20.2855,9.3608 C20.2855,9.3608 20.2865,9.3608 20.2865,9.3618 C20.2865,9.3698 20.2875,9.3778 20.2885,9.3858 C20.2895,9.3958 20.2905,9.4058 20.2915,9.4158 C20.3195,9.6898 20.3615,9.9588 20.4185,10.2238 L20.4185,10.2248 C20.4185,10.2258 20.4185,10.2268 20.4195,10.2288 L20.4195,10.2298 C20.4215,10.2378 20.4225,10.2448 20.4245,10.2528 L20.4245,10.2538 C20.4245,10.2558 20.4255,10.2568 20.4255,10.2588 C20.4255,10.2588 20.4255,10.2598 20.4265,10.2598 C20.4275,10.2658 20.4285,10.2708 20.4295,10.2758 C20.4305,10.2778 20.4305,10.2798 20.4305,10.2818 C20.4305,10.2818 20.4315,10.2818 20.4315,10.2828 C20.4315,10.2838 20.4325,10.2858 20.4325,10.2878 L20.4325,10.2888 C20.4335,10.2948 20.4345,10.2998 20.4365,10.3048 L20.4365,10.3058 C20.4365,10.3078 20.4375,10.3088 20.4375,10.3098 L20.4375,10.3118 C20.4385,10.3138 20.4385,10.3148 20.4385,10.3168 C20.4385,10.3168 20.4395,10.3178 20.4395,10.3188 C20.4405,10.3228 20.4415,10.3278 20.4425,10.3328 C20.4425,10.3338 20.4425,10.3348 20.4435,10.3358 C20.4435,10.3368 20.4435,10.3378 20.4435,10.3388 L20.4435,10.3418 C20.4435,10.3438 20.4445,10.3448 20.4445,10.3458 C20.4445,10.3468 20.4455,10.3478 20.4455,10.3488 C20.4455,10.3498 20.4455,10.3508 20.4465,10.3518 C20.4465,10.3538 20.4475,10.3558 20.4475,10.3578 C20.4475,10.3588 20.4475,10.3598 20.4485,10.3608 C20.4485,10.3618 20.4485,10.3628 20.4495,10.3648 L20.4495,10.3678 C20.4505,10.3688 20.4505,10.3698 20.4505,10.3718 C20.4515,10.3728 20.4515,10.3738 20.4515,10.3748 C20.4515,10.3758 20.4525,10.3768 20.4525,10.3788 C20.4525,10.3798 20.4525,10.3798 20.4535,10.3808 C20.4535,10.3838 20.4535,10.3858 20.4545,10.3878 C20.4545,10.3888 20.4545,10.3888 20.4555,10.3898 C20.4555,10.3918 20.4555,10.3928 20.4565,10.3938 L20.4565,10.3958 C20.4575,10.3978 20.4575,10.3988 20.4575,10.4008 L20.4585,10.4028 C20.4585,10.4048 20.4595,10.4068 20.4595,10.4088 L20.4595,10.4098 C20.4605,10.4118 20.4615,10.4148 20.4615,10.4168 L20.4615,10.4178 C20.4625,10.4198 20.4625,10.4218 20.4635,10.4238 L20.4635,10.4258 C20.4645,10.4268 20.4645,10.4288 20.4655,10.4308 L20.4655,10.4328 C20.4665,10.4358 20.4675,10.4408 20.4685,10.4458 L20.4695,10.4458 C20.4695,10.4488 20.4705,10.4508 20.4705,10.4528 L20.4705,10.4538 C20.4715,10.4558 20.4715,10.4578 20.4725,10.4608 L20.4955,10.5548 L21.4645,10.3038 C21.3225,9.7598 21.2515,9.1938 21.2515,8.6258 L21.2515,8.5818 L20.2515,8.5748 Z M21.2945,4.7608 C20.9615,5.3308 20.6995,5.9478 20.5225,6.5998 L21.4865,6.8628 C21.6395,6.3048 21.8645,5.7668 22.1575,5.2658 L21.2945,4.7608 Z M24.1015,1.9738 C24.0635,1.9948 24.0265,2.0168 23.9885,2.0388 C23.9845,2.0418 23.9795,2.0448 23.9755,2.0478 L23.9745,2.0478 C23.9725,2.0488 23.9715,2.0498 23.9705,2.0508 L23.9685,2.0508 C23.9645,2.0538 23.9605,2.0568 23.9555,2.0588 C23.9555,2.0588 23.9545,2.0588 23.9535,2.0598 C23.9525,2.0598 23.9515,2.0608 23.9495,2.0618 C23.9495,2.0618 23.9485,2.0628 23.9475,2.0628 C23.9465,2.0638 23.9455,2.0648 23.9445,2.0648 C23.9435,2.0658 23.9425,2.0668 23.9415,2.0668 C23.9405,2.0678 23.9385,2.0688 23.9365,2.0698 C23.9355,2.0708 23.9345,2.0708 23.9345,2.0718 L23.9305,2.0738 C23.9295,2.0748 23.9285,2.0748 23.9275,2.0758 C23.9265,2.0768 23.9255,2.0768 23.9245,2.0778 C23.9225,2.0788 23.9215,2.0798 23.9195,2.0808 C23.9185,2.0818 23.9175,2.0818 23.9165,2.0828 C23.9155,2.0828 23.9145,2.0838 23.9135,2.0848 C23.9125,2.0848 23.9115,2.0858 23.9105,2.0868 C23.9095,2.0868 23.9085,2.0878 23.9065,2.0888 L23.9045,2.0908 C23.9025,2.0908 23.9015,2.0918 23.9005,2.0928 C23.8995,2.0938 23.8985,2.0948 23.8975,2.0948 C23.8965,2.0958 23.8955,2.0968 23.8935,2.0968 C23.8935,2.0978 23.8925,2.0978 23.8915,2.0988 C23.8895,2.0998 23.8885,2.1008 23.8875,2.1008 C23.8865,2.1008 23.8855,2.1018 23.8835,2.1028 C23.8825,2.1028 23.8815,2.1038 23.8795,2.1048 C23.8795,2.1058 23.8785,2.1058 23.8775,2.1068 C23.8755,2.1068 23.8745,2.1078 23.8735,2.1088 C23.8725,2.1098 23.8715,2.1098 23.8715,2.1098 C23.8695,2.1118 23.8675,2.1128 23.8655,2.1138 L23.8645,2.1148 C23.8625,2.1158 23.8615,2.1168 23.8605,2.1178 C23.8595,2.1178 23.8585,2.1188 23.8585,2.1188 C23.8565,2.1198 23.8555,2.1208 23.8535,2.1218 L23.8525,2.1228 C23.8505,2.1238 23.8485,2.1258 23.8465,2.1268 C23.8455,2.1268 23.8445,2.1278 23.8445,2.1278 C23.8425,2.1288 23.8415,2.1298 23.8405,2.1308 C23.8395,2.1308 23.8385,2.1308 23.8375,2.1318 C23.8365,2.1328 23.8345,2.1338 23.8335,2.1348 C23.8325,2.1348 23.8325,2.1358 23.8315,2.1358 C23.8295,2.1368 23.8275,2.1378 23.8255,2.1398 L23.8245,2.1398 C23.8225,2.1418 23.8215,2.1418 23.8195,2.1428 C23.8185,2.1428 23.8185,2.1428 23.8185,2.1438 C23.8175,2.1448 23.8155,2.1458 23.8135,2.1468 L23.8125,2.1468 C23.8105,2.1488 23.8085,2.1498 23.8065,2.1508 L23.8055,2.1518 C23.8035,2.1528 23.8015,2.1548 23.8005,2.1558 L23.7985,2.1558 C23.7945,2.1588 23.7905,2.1618 23.7865,2.1638 L23.7855,2.1648 C23.7835,2.1658 23.7815,2.1668 23.7795,2.1688 L23.7785,2.1688 C23.7755,2.1718 23.7715,2.1748 23.7665,2.1768 L23.7665,2.1778 C23.7645,2.1788 23.7625,2.1808 23.7605,2.1818 L23.7595,2.1818 C23.7575,2.1838 23.7555,2.1838 23.7535,2.1848 L23.7525,2.1858 C23.7505,2.1868 23.7485,2.1878 23.7465,2.1898 L23.7455,2.1898 C23.7435,2.1908 23.7425,2.1928 23.7405,2.1938 L23.7395,2.1938 C23.7375,2.1958 23.7355,2.1968 23.7345,2.1978 L23.7335,2.1988 C23.7315,2.1998 23.7295,2.2008 23.7275,2.2028 L23.7265,2.2028 L23.7145,2.2118 L23.7135,2.2118 C23.7115,2.2128 23.7095,2.2148 23.7075,2.2158 L23.7065,2.2158 C23.7025,2.2188 23.6985,2.2218 23.6935,2.2248 C23.6925,2.2258 23.6905,2.2268 23.6885,2.2278 L23.6875,2.2288 C23.6835,2.2308 23.6795,2.2338 23.6755,2.2368 C23.6745,2.2368 23.6745,2.2368 23.6745,2.2378 L23.6685,2.2408 C23.6685,2.2408 23.6685,2.2418 23.6675,2.2418 C23.6635,2.2448 23.6595,2.2468 23.6555,2.2498 C23.6545,2.2498 23.6545,2.2508 23.6545,2.2508 C23.6525,2.2518 23.6515,2.2538 23.6495,2.2548 C23.6445,2.2578 23.6405,2.2608 23.6365,2.2638 L23.6355,2.2638 C23.6315,2.2668 23.6275,2.2688 23.6225,2.2718 C23.6205,2.2738 23.6185,2.2748 23.6165,2.2758 L23.6155,2.2768 C23.6115,2.2798 23.6085,2.2818 23.6035,2.2848 L23.6035,2.2858 C23.6015,2.2868 23.5995,2.2878 23.5975,2.2898 L23.5965,2.2898 L23.5845,2.2988 C23.5845,2.2988 23.5835,2.2988 23.5835,2.2998 C23.5815,2.3008 23.5795,2.3018 23.5785,2.3028 C23.5775,2.3028 23.5775,2.3038 23.5765,2.3038 C23.5745,2.3048 23.5725,2.3068 23.5705,2.3078 C23.5685,2.3088 23.5675,2.3098 23.5655,2.3108 C23.5655,2.3118 23.5655,2.3118 23.5645,2.3118 C23.5625,2.3128 23.5605,2.3148 23.5595,2.3158 L23.5585,2.3158 C23.5565,2.3178 23.5545,2.3188 23.5525,2.3208 L23.5515,2.3208 C23.5495,2.3218 23.5475,2.3238 23.5465,2.3248 C23.5455,2.3248 23.5455,2.3258 23.5445,2.3258 C23.5425,2.3268 23.5415,2.3278 23.5395,2.3298 L23.5385,2.3298 C23.5365,2.3308 23.5345,2.3328 23.5325,2.3338 C23.5325,2.3348 23.5315,2.3348 23.5315,2.3348 C23.5295,2.3358 23.5285,2.3368 23.5265,2.3388 C23.5265,2.3388 23.5265,2.3388 23.5255,2.3398 C23.5245,2.3408 23.5225,2.3418 23.5205,2.3428 L23.5205,2.3438 C23.5185,2.3448 23.5165,2.3468 23.5145,2.3478 C23.5135,2.3478 23.5135,2.3488 23.5125,2.3488 C23.5115,2.3498 23.5095,2.3508 23.5085,2.3508 C23.5075,2.3518 23.5065,2.3518 23.5065,2.3518 C23.5045,2.3538 23.5025,2.3548 23.5005,2.3568 C23.4985,2.3578 23.4965,2.3588 23.4945,2.3608 C23.4935,2.3608 23.4935,2.3618 23.4925,2.3618 C23.4915,2.3628 23.4905,2.3638 23.4885,2.3648 C23.4885,2.3648 23.4875,2.3658 23.4865,2.3658 C23.4855,2.3678 23.4835,2.3688 23.4815,2.3698 L23.4815,2.3708 C23.4795,2.3718 23.4775,2.3728 23.4765,2.3738 L23.4745,2.3758 C23.4725,2.3768 23.4715,2.3778 23.4705,2.3788 C23.4695,2.3788 23.4685,2.3798 23.4685,2.3798 C23.4665,2.3818 23.4645,2.3828 23.4625,2.3838 L23.4605,2.3858 C23.4595,2.3858 23.4585,2.3868 23.4575,2.3878 C23.4565,2.3888 23.4555,2.3898 23.4545,2.3898 C23.4535,2.3908 23.4525,2.3918 23.4515,2.3918 C23.4505,2.3918 23.4495,2.3928 23.4485,2.3928 C23.4475,2.3948 23.4455,2.3958 23.4435,2.3968 C23.4435,2.3978 23.4425,2.3978 23.4425,2.3988 C23.4405,2.3998 23.4395,2.3998 23.4385,2.4008 C23.4385,2.4018 23.4365,2.4018 23.4365,2.4028 C23.4345,2.4038 23.4345,2.4048 23.4325,2.4048 L23.4295,2.4078 C23.4285,2.4088 23.4265,2.4098 23.4255,2.4108 C23.4245,2.4108 23.4235,2.4118 23.4225,2.4128 C23.4215,2.4138 23.4205,2.4138 23.4195,2.4148 C23.4185,2.4158 23.4175,2.4158 23.4165,2.4168 C23.4155,2.4178 23.4145,2.4178 23.4145,2.4188 C23.4125,2.4198 23.4105,2.4208 23.4085,2.4228 L23.4065,2.4248 C23.4055,2.4258 23.4045,2.4258 23.4025,2.4268 C23.4025,2.4278 23.4015,2.4278 23.4015,2.4288 C23.4005,2.4298 23.3995,2.4308 23.3985,2.4308 C23.3975,2.4318 23.3965,2.4318 23.3965,2.4328 C23.3945,2.4338 23.3925,2.4348 23.3905,2.4358 C23.3895,2.4368 23.3885,2.4368 23.3875,2.4378 C23.3865,2.4388 23.3855,2.4388 23.3845,2.4398 L23.3825,2.4418 C23.3815,2.4428 23.3805,2.4438 23.3795,2.4438 C23.3785,2.4438 23.3785,2.4448 23.3785,2.4448 C23.3755,2.4468 23.3735,2.4488 23.3705,2.4508 C23.3695,2.4508 23.3695,2.4508 23.3695,2.4518 C23.3675,2.4528 23.3665,2.4538 23.3655,2.4548 L23.3635,2.4548 C23.3605,2.4588 23.3565,2.4618 23.3525,2.4648 C23.3515,2.4648 23.3515,2.4658 23.3505,2.4658 C23.3495,2.4668 23.3485,2.4678 23.3465,2.4688 L23.3465,2.4698 C23.3415,2.4728 23.3375,2.4758 23.3335,2.4778 C23.3325,2.4778 23.3325,2.4788 23.3325,2.4788 C23.3305,2.4798 23.3295,2.4808 23.3285,2.4818 C23.3275,2.4818 23.3275,2.4818 23.3275,2.4828 C23.3225,2.4858 23.3185,2.4888 23.3155,2.4928 L23.3145,2.4928 C23.3085,2.4978 23.3025,2.5018 23.2955,2.5068 C23.0275,2.7098 22.7745,2.9298 22.5345,3.1648 C22.5335,3.1668 22.5315,3.1678 22.5305,3.1688 L22.5305,3.1698 L22.5195,3.1818 L22.5185,3.1818 C22.5175,3.1828 22.5165,3.1838 22.5165,3.1838 L23.2215,3.8928 C23.6335,3.4828 24.0975,3.1288 24.6005,2.8398 L24.1015,1.9738 Z M27.9225,0.9548 L27.9145,0.9548 L27.9125,0.9548 L27.9075,0.9548 L27.9045,0.9548 L27.8995,0.9548 L27.8985,0.9548 L27.8905,0.9548 L27.8885,0.9548 L27.8835,0.9548 L27.8805,0.9548 L27.8755,0.9548 L27.8735,0.9548 L27.8655,0.9548 L27.8595,0.9548 C27.8585,0.9548 27.8575,0.9548 27.8565,0.9558 L27.8515,0.9558 L27.8495,0.9558 L27.8435,0.9558 L27.8415,0.9558 L27.8345,0.9558 L27.8325,0.9558 L27.8265,0.9558 L27.8245,0.9558 L27.8195,0.9558 L27.8175,0.9558 L27.8105,0.9558 L27.8095,0.9558 L27.8035,0.9558 L27.8005,0.9558 L27.7955,0.9558 L27.7935,0.9558 L27.7865,0.9558 L27.7855,0.9558 C27.7835,0.9558 27.7805,0.9558 27.7785,0.9568 L27.7765,0.9568 L27.7715,0.9568 L27.7695,0.9568 L27.7645,0.9568 L27.7615,0.9568 L27.7545,0.9568 L27.7525,0.9568 L27.7475,0.9568 L27.7445,0.9568 L27.7395,0.9568 L27.7375,0.9568 C27.7335,0.9578 27.7285,0.9578 27.7235,0.9578 L27.7215,0.9578 L27.7155,0.9578 L27.7135,0.9578 L27.7075,0.9578 L27.7055,0.9578 L27.6985,0.9578 L27.6965,0.9578 C27.6955,0.9588 27.6935,0.9588 27.6925,0.9588 L27.6895,0.9588 L27.6845,0.9588 L27.6825,0.9588 L27.6745,0.9588 L27.6675,0.9588 C27.6665,0.9598 27.6665,0.9598 27.6645,0.9598 L27.6595,0.9598 L27.6575,0.9598 L27.6515,0.9598 L27.6515,0.9598 L27.6435,0.9598 L27.6415,0.9598 C27.6395,0.9598 27.6385,0.9598 27.6365,0.9608 L27.6335,0.9608 L27.6285,0.9608 L27.6265,0.9608 L27.6185,0.9608 L27.6175,0.9608 C27.6155,0.9608 27.6135,0.9608 27.6115,0.9618 L27.6105,0.9618 L27.6045,0.9618 L27.6025,0.9618 L27.5955,0.9618 L27.5875,0.9618 C27.5865,0.9628 27.5865,0.9628 27.5855,0.9628 L27.5805,0.9628 L27.5785,0.9628 L27.5725,0.9628 L27.5705,0.9628 C27.5685,0.9628 27.5665,0.9638 27.5635,0.9638 L27.5565,0.9638 L27.5545,0.9638 L27.5485,0.9638 L27.5475,0.9638 C27.5415,0.9648 27.5375,0.9648 27.5315,0.9648 L27.5305,0.9648 C27.5285,0.9648 27.5265,0.9648 27.5255,0.9658 L27.5235,0.9658 L27.5165,0.9658 L27.5085,0.9658 L27.5075,0.9658 C27.5055,0.9668 27.5025,0.9668 27.5005,0.9668 L27.4985,0.9668 L27.4925,0.9668 L27.4915,0.9668 C27.4865,0.9678 27.4825,0.9678 27.4775,0.9678 L27.4755,0.9678 C27.4735,0.9678 27.4715,0.9678 27.4695,0.9688 L27.4675,0.9688 L27.4615,0.9688 L27.4605,0.9688 C27.4575,0.9688 27.4555,0.9698 27.4525,0.9698 L27.4515,0.9698 L27.4455,0.9698 L27.4435,0.9698 C27.4425,0.9698 27.4405,0.9698 27.4385,0.9708 L27.4365,0.9708 C27.4315,0.9708 27.4265,0.9708 27.4215,0.9718 L27.4205,0.9718 L27.4145,0.9718 L27.4125,0.9718 C27.4095,0.9718 27.4075,0.9728 27.4055,0.9728 L27.4045,0.9728 L27.3985,0.9728 L27.3965,0.9728 C27.3945,0.9738 27.3925,0.9738 27.3915,0.9738 L27.3885,0.9738 L27.3825,0.9738 L27.3815,0.9738 C27.3795,0.9748 27.3765,0.9748 27.3735,0.9748 L27.3665,0.9748 C27.3655,0.9758 27.3655,0.9758 27.3645,0.9758 L27.3595,0.9758 L27.3585,0.9758 C27.3535,0.9758 27.3485,0.9758 27.3425,0.9758 L27.3415,0.9758 C27.3395,0.9768 27.3375,0.9768 27.3355,0.9768 L27.3335,0.9768 L27.3265,0.9768 C27.3235,0.9778 27.3215,0.9778 27.3185,0.9778 C27.3165,0.9778 27.3145,0.9788 27.3115,0.9788 L27.3105,0.9788 L27.3045,0.9788 L27.3035,0.9788 C27.2975,0.9798 27.2925,0.9798 27.2875,0.9808 L27.2865,0.9808 L27.2795,0.9808 L27.2785,0.9808 C27.2745,0.9818 27.2695,0.9818 27.2645,0.9828 L27.2635,0.9828 L27.2565,0.9828 L27.2555,0.9828 C27.2535,0.9838 27.2505,0.9838 27.2485,0.9838 L27.2475,0.9838 C27.2425,0.9848 27.2375,0.9848 27.2335,0.9848 C27.2335,0.9848 27.2325,0.9848 27.2325,0.9858 L27.2255,0.9858 L27.2245,0.9858 C27.2195,0.9868 27.2145,0.9868 27.2095,0.9878 L27.2085,0.9878 L27.2015,0.9878 L27.2005,0.9878 C27.1985,0.9888 27.1955,0.9888 27.1935,0.9888 L27.1935,0.9888 C27.1885,0.9898 27.1835,0.9898 27.1785,0.9908 L27.1775,0.9908 L27.1705,0.9908 L27.1695,0.9908 C27.1645,0.9918 27.1595,0.9928 27.1545,0.9928 L27.1535,0.9928 C27.1515,0.9928 27.1495,0.9938 27.1475,0.9938 L27.1465,0.9938 C27.1385,0.9948 27.1315,0.9948 27.1235,0.9958 L27.1225,0.9958 C27.1205,0.9968 27.1175,0.9968 27.1155,0.9968 L27.1145,0.9968 C27.1105,0.9978 27.1055,0.9978 27.1005,0.9988 L27.0995,0.9988 C27.0975,0.9988 27.0945,0.9988 27.0925,0.9998 L27.0915,0.9998 C27.0845,1.0008 27.0765,1.0008 27.0685,1.0018 L27.0685,1.0018 C27.0615,1.0028 27.0535,1.0038 27.0455,1.0048 C27.0425,1.0048 27.0405,1.0058 27.0375,1.0058 L27.0145,1.0088 C27.0065,1.0098 26.9985,1.0108 26.9905,1.0108 C26.9875,1.0118 26.9855,1.0118 26.9835,1.0118 L26.9595,1.0148 C26.9435,1.0168 26.9285,1.0178 26.9135,1.0198 C26.9105,1.0208 26.9085,1.0208 26.9055,1.0218 L26.8825,1.0248 C26.5635,1.0678 26.2495,1.1318 25.9435,1.2128 L26.2015,2.1788 C26.7595,2.0298 27.3385,1.9548 27.9225,1.9548 L27.9225,0.9548 Z" id="Fill-14"></path>
                </g>
            </g>
        </g>
    </g>
</svg>