<?xml version="1.0" encoding="UTF-8"?>
<svg width="56px" height="62px" viewBox="0 0 56 62" version="1.1" xmlns="http://www.w3.org/2000/svg" xmlns:xlink="http://www.w3.org/1999/xlink">
    <!-- Generator: Sketch 60.1 (88133) - https://sketch.com -->
    <title>编组</title>
    <desc>Created with Sketch.</desc>
    <defs>
        <polygon id="path-1" points="0 0.7917 35.2775 0.7917 35.2775 16.7917 0 16.7917"></polygon>
    </defs>
    <g id="页面-1" stroke="none" stroke-width="1" fill="none" fill-rule="evenodd">
        <g id="首页" transform="translate(-681.000000, -3475.000000)">
            <g id="编组" transform="translate(681.000000, 3474.000000)">
                <g transform="translate(0.000000, 0.520800)">
                    <g transform="translate(6.000000, 1.000000)">
                        <path d="M48.8747,11.7497 L48.8747,56.5977 C48.8747,58.4697 47.3447,59.9997 45.4727,59.9997 L4.1107,59.9997 C2.2387,59.9997 0.7087,58.4697 0.7087,56.5977 L0.7087,3.9017 C0.7087,2.0307 2.2387,0.4997 4.1107,0.4997 L36.9167,0.4997" id="Fill-1" fill="#FFFFFF"></path>
                        <path d="M48.8747,11.7497 L48.8747,56.5977 C48.8747,58.4697 47.3447,59.9997 45.4727,59.9997 L4.1107,59.9997 C2.2387,59.9997 0.7087,58.4697 0.7087,56.5977 L0.7087,3.9017 C0.7087,2.0307 2.2387,0.4997 4.1107,0.4997 L36.9167,0.4997" id="Stroke-3" stroke="#FCA253" stroke-width="2"></path>
                    </g>
                    <polygon id="Fill-4" fill="#FCA253" points="42.8747 0.4792 42.8747 12.7502 55.8897 12.7502"></polygon>
                    <g transform="translate(0.000000, 5.000000)">
                        <mask id="mask-2" fill="white">
                            <use xlink:href="#path-1"></use>
                        </mask>
                        <g id="Clip-7"></g>
                        <path d="M33.0065,16.7917 L-0.0005,16.7917 L-0.0005,3.0627 C-0.0005,1.8127 1.0225,0.7917 2.2705,0.7917 L33.0065,0.7917 C34.2555,0.7917 35.2775,1.8127 35.2775,3.0627 L35.2775,14.5207 C35.2775,15.7707 34.2555,16.7917 33.0065,16.7917" id="Fill-6" fill="#FCA253" mask="url(#mask-2)"></path>
                    </g>
                    <path d="M0.0729,21.8337 L5.8229,25.7087 L5.8229,21.8227 C5.8229,21.8227 0.1979,21.8337 0.0729,21.8337" id="Fill-8" fill="#C6661E"></path>
                    <path d="M42.8747,12.7497 L53.9167,23.5357 L53.9167,12.7927 C53.9167,12.7927 43.0887,12.7497 42.8747,12.7497" id="Fill-10" fill="#E6E6E6"></path>
                </g>
                <text id="JPG" font-family="PingFangSC-Regular, PingFang SC" font-size="10.576" font-weight="normal" fill="#FFFFFF">
                    <tspan x="7.9297" y="18">JPG</tspan>
                </text>
                <g transform="translate(16.000000, 26.520800)" fill="#FCA253">
                    <path d="M11.9997,4.5964 L18.5417,15.4994 L21.8817,11.0034 C22.3557,10.3654 23.3267,10.4094 23.7407,11.0894 L28.8367,19.4604 C29.2917,20.2084 28.7537,21.1664 27.8787,21.1664 L2.0327,21.1664 C1.1587,21.1664 0.6197,20.2104 1.0727,19.4634 L10.0777,4.5924 C10.5157,3.8694 11.5647,3.8714 11.9997,4.5964" id="Fill-12"></path>
                    <path d="M21.3366,5.3913 C20.1006,5.6433 18.8946,4.8453 18.6426,3.6103 C18.3906,2.3733 19.1886,1.1673 20.4236,0.9153 C21.6596,0.6633 22.8656,1.4613 23.1176,2.6973 C23.3696,3.9333 22.5716,5.1383 21.3366,5.3913" id="Fill-14"></path>
                </g>
            </g>
        </g>
    </g>
</svg>