<?xml version="1.0" encoding="UTF-8"?>
<svg width="118px" height="48px" viewBox="0 0 118 48" version="1.1" xmlns="http://www.w3.org/2000/svg" xmlns:xlink="http://www.w3.org/1999/xlink">
    <!-- Generator: Sketch 60.1 (88133) - https://sketch.com -->
    <title>编组</title>
    <desc>Created with Sketch.</desc>
    <defs>
        <polygon id="path-1" points="0 48 117.45498 48 117.45498 0.111036145 0 0.111036145"></polygon>
        <path d="M52.5713366,0.8856 L25.9179406,20.1134286 C25.7695644,20.2206143 25.6346238,20.3389286 25.5061089,20.4625143 L25.5061089,20.4625143 L19.3035149,24.9362 C17.7286238,26.0730714 15.5234257,25.9752571 14.1611683,24.5888714 L14.1611683,24.5888714 C12.4437426,22.8428571 12.7428317,20.0290857 14.6501089,18.6538286 L14.6501089,18.6538286 L21.7067426,13.5622143 C23.8710495,12.0012857 24.7805842,9.2168 23.9563366,6.6748 L23.9563366,6.6748 L23.1788218,4.27571429 C22.2447525,1.39224286 18.1760891,1.39224286 17.2420198,4.27571429 L17.2420198,4.27571429 L14.6109703,12.3948857 C14.1927129,13.6852143 12.994604,14.5579286 11.6422772,14.5579286 L11.6422772,14.5579286 L3.127,14.5579286 C1.2150495,14.5579286 0.00934653465,16.1100714 0,17.7014571 L0,17.7014571 L0,17.7371857 C0.00525742574,18.6503143 0.404821782,19.5728143 1.29215842,20.2194429 L1.29215842,20.2194429 L8.18113861,25.2372571 C9.27526733,26.0344143 9.73324752,27.4465714 9.3149901,28.7363143 L9.3149901,28.7363143 L6.68394059,36.8560714 C5.74928713,39.7395429 9.0410198,42.1368714 11.4874752,40.3551286 L11.4874752,40.3551286 L18.3758713,35.3367286 C19.47,34.5401571 20.9514257,34.5401571 22.0449703,35.3367286 L22.0449703,35.3367286 L28.9339505,40.3551286 C31.3798218,42.1368714 34.6709703,39.7395429 33.736901,36.8560714 L33.736901,36.8560714 L31.1058515,28.7363143 C30.6881782,27.4465714 31.1455743,26.0344143 32.239703,25.2372571 L32.239703,25.2372571 L38.4189307,20.7354571 L57.2253267,7.16914286 C59.1331881,5.7933 59.4316931,2.97894286 57.7142673,1.23292857 L57.7142673,1.23292857 C56.9729703,0.479114286 55.9822376,0.1066 54.9786535,0.106014286 L54.9786535,0.106014286 C54.1386337,0.106014286 53.2898515,0.367828571 52.5713366,0.8856" id="path-3"></path>
        <linearGradient x1="0%" y1="50.0006038%" x2="99.9999876%" y2="50.0006038%" id="linearGradient-5">
            <stop stop-color="#F6931D" offset="0%"></stop>
            <stop stop-color="#FBED21" offset="100%"></stop>
        </linearGradient>
        <path d="M0.0946153846,10.029037 C1.10884615,9.51348148 2.33423077,9.60355556 3.27173077,10.304 L3.27173077,10.304 L10.0759615,15.3807407 C10.6476923,15.808 11.2667308,15.9976296 11.8655769,16 L11.8655769,16 L11.8915385,16 C13.8121154,15.9905185 15.5203846,14.0574815 14.8194231,11.8411852 L14.8194231,11.8411852 L12.2209615,3.62548148 C11.8725,2.52503704 12.1453846,1.33985185 12.8867308,0.510222222 L12.8867308,0.510222222 C8.57019231,3.72918519 3.4425,7.54133333 0.0946153846,10.029037" id="path-6"></path>
        <linearGradient x1="49.9987061%" y1="0.00166379739%" x2="49.9987061%" y2="100%" id="linearGradient-8">
            <stop stop-color="#F67C1D" offset="0%"></stop>
            <stop stop-color="#FBED21" offset="100%"></stop>
        </linearGradient>
        <path d="M15.1510606,0.109714286 C14.4497879,0.112 13.7439091,0.326285714 13.1393636,0.768571429 L13.1393636,0.768571429 L1.44457576,9.32742857 C-0.0690909091,10.4348571 -0.393818182,12.5697143 0.722,14.072 L0.722,14.072 C1.83781818,15.5742857 3.98942424,15.8965714 5.50251515,14.7891429 L5.50251515,14.7891429 L17.1978788,6.23085714 C18.7109697,5.12285714 19.035697,2.98742857 17.9204545,1.48514286 L17.9204545,1.48514286 C17.2554545,0.590285714 16.2225455,0.113714286 15.1763939,0.109714286 L15.1763939,0.109714286 L15.1510606,0.109714286 Z" id="path-9"></path>
        <linearGradient x1="0.000356400007%" y1="50.0004182%" x2="100.000383%" y2="50.0004182%" id="linearGradient-11">
            <stop stop-color="#F6931D" offset="0%"></stop>
            <stop stop-color="#FBED21" offset="100%"></stop>
        </linearGradient>
    </defs>
    <g id="页面-1" stroke="none" stroke-width="1" fill="none" fill-rule="evenodd">
        <g id="首页" transform="translate(-488.000000, -22.000000)">
            <g id="编组" transform="translate(488.000000, 22.000000)">
                <g>
                    <path d="M75.2153614,11.8747373 L75.2153614,12.7005687 C75.2030941,13.0915084 75.3701634,13.2817735 75.7159851,13.2690506 L85.6875693,13.2690506 C86.0211238,13.2690506 86.1876089,13.018641 86.1876089,12.5166651 L86.1876089,11.8747373 L75.2153614,11.8747373 Z M75.9753515,9.17748434 C75.4443515,9.15319518 75.1908267,9.40418313 75.2153614,9.92986988 L75.2153614,10.5538699 L86.1876089,10.5538699 L86.1876089,9.89285783 C86.1876089,9.40418313 85.996005,9.16533976 85.6133812,9.17748434 L75.9753515,9.17748434 Z M75.0301832,7.85661687 L86.3359851,7.85661687 C87.1637376,7.85661687 87.5843317,8.22962892 87.5960149,8.97565301 L87.5960149,13.122159 C87.6585198,14.1746892 87.1888564,14.6633639 86.1876089,14.5899181 L81.7766287,14.5899181 L81.7766287,16.3150265 L88.0043416,16.3150265 C88.4734208,16.339894 88.7269455,16.5717976 88.7637475,17.0124723 C88.7269455,17.453147 88.4734208,17.6856289 88.0043416,17.7099181 L81.7766287,17.7099181 L81.7766287,19.4344482 L87.4856089,19.4344482 C87.9056188,19.4587373 88.1340248,19.6917976 88.1714109,20.1313157 C88.1340248,20.5719904 87.9056188,20.8044723 87.4856089,20.8287614 L81.7766287,20.8287614 L81.7766287,22.6637494 L88.8198267,22.6637494 C89.2766386,22.6880386 89.5237376,22.9210988 89.5611238,23.3606169 C89.5237376,23.8012916 89.2766386,24.0331952 88.8198267,24.0580627 L73.0101634,24.0580627 C72.4908465,24.0331952 72.2069455,23.8012916 72.1578762,23.3606169 C72.2069455,22.9210988 72.4908465,22.6880386 73.0101634,22.6637494 L80.3127277,22.6637494 L80.3127277,20.8287614 L74.6037475,20.8287614 C74.1469356,20.8044723 73.8998366,20.5719904 73.8630347,20.1313157 C73.8998366,19.6917976 74.1469356,19.4587373 74.6037475,19.4344482 L80.3127277,19.4344482 L80.3127277,17.7099181 L75.2153614,17.7099181 C74.708896,18.2847614 74.0727475,18.8353157 73.3063317,19.3610024 C72.8985891,19.642641 72.5405,19.6547855 72.2320644,19.3980145 C71.9101931,19.0192193 71.9037673,18.6820627 72.2127871,18.3888578 C73.510203,17.4710747 74.5359851,16.4069783 75.2895495,15.1959904 C75.5121139,14.8900627 75.8392426,14.8351229 76.272104,15.0305928 C76.6173416,15.2630747 76.7108069,15.562641 76.5501634,15.9298699 C76.537896,15.9420145 76.5250446,15.9599422 76.5133614,15.9848096 C76.4508564,16.0952675 76.3830941,16.205147 76.3089059,16.3150265 L80.3127277,16.3150265 L80.3127277,14.5899181 L75.2521634,14.5899181 C74.2888861,14.5899181 73.8069554,14.1625446 73.8069554,13.3060627 L73.8069554,9.06702651 C73.8314901,8.28456867 74.2392327,7.88090602 75.0301832,7.85661687 L75.0301832,7.85661687 Z" id="Fill-1" fill="#FFFFFF"></path>
                    <mask id="mask-2" fill="white">
                        <use xlink:href="#path-1"></use>
                    </mask>
                    <g id="Clip-4"></g>
                    <path d="M109.096257,17.7831325 L113.840792,17.7831325 L113.840792,16.4981205 L109.096257,16.4981205 L109.096257,17.7831325 Z M109.096257,15.177253 L113.840792,15.177253 L113.840792,13.8743133 L109.096257,13.8743133 L109.096257,15.177253 Z M113.840792,19.0675663 L109.058871,19.0675663 L109.058871,20.7556627 L113.840792,20.4439518 L113.840792,19.0675663 Z M109.207248,8.93898795 C108.947881,8.93898795 108.818198,9.06737349 108.818198,9.32414458 L108.818198,9.92963855 C108.805347,10.2112771 108.93503,10.3460241 109.207248,10.3333012 L113.91498,10.3333012 C114.174347,10.3217349 114.304614,10.1864096 114.304614,9.92963855 L114.304614,9.32414458 C114.304614,9.06737349 114.174347,8.93898795 113.91498,8.93898795 L109.207248,8.93898795 Z M108.262079,7.56260241 L114.860149,7.56260241 C115.453069,7.55103614 115.743396,7.83787952 115.731129,8.42544578 L115.731129,10.8289157 C115.731129,11.403759 115.440802,11.6911807 114.860149,11.6911807 L108.262079,11.6911807 C107.668574,11.7033253 107.378248,11.4159036 107.391099,10.8289157 L107.391099,8.42544578 C107.353713,7.81359036 107.64404,7.52616867 108.262079,7.56260241 L108.262079,7.56260241 Z M106.779485,12.48 L116.268554,12.48 C116.651762,12.5048675 116.861475,12.7431325 116.898861,13.1959518 C116.861475,13.6487711 116.651762,13.8870361 116.268554,13.9113253 L115.360188,13.9113253 L115.360188,20.2970602 L116.69499,20.1866024 C117.139535,20.1744578 117.393059,20.3947952 117.45498,20.8470361 C117.45498,21.3125783 117.238842,21.581494 116.806564,21.6549398 L115.360188,21.7648193 L115.360188,23.9849639 C115.335653,24.4863614 115.082713,24.7558554 114.600198,24.7922892 C114.118851,24.7558554 113.865327,24.4863614 113.840792,23.9849639 L113.840792,21.8746988 L106.278861,22.406747 C105.809198,22.4194699 105.537564,22.1991325 105.463376,21.7463133 C105.450525,21.2813494 105.673089,21.0124337 106.130485,20.938988 C106.192406,20.938988 106.673752,20.9025542 107.576277,20.8291084 L107.576277,13.9113253 L106.779485,13.9113253 C106.297554,13.8870361 106.037604,13.6487711 106.000802,13.1959518 C106.037604,12.7431325 106.297554,12.5048675 106.779485,12.48 L106.779485,12.48 Z M102.293733,7.56260241 C102.454376,7.14737349 102.744703,6.98139759 103.164713,7.06756627 C103.572455,7.21445783 103.727257,7.50187952 103.628535,7.92983133 L103.202099,9.47103614 L105.70405,9.47103614 C106.149178,9.4953253 106.389851,9.7220241 106.426653,10.1499759 C106.389851,10.5779277 106.149178,10.8046265 105.70405,10.8289157 L102.831158,10.8289157 L101.571129,14.8106024 L102.979535,14.8106024 L102.979535,12.3331084 C103.004653,11.8687229 103.238901,11.6177349 103.68403,11.5813012 C104.129158,11.6177349 104.363406,11.8687229 104.388525,12.3331084 L104.388525,14.8106024 L105.70405,14.8106024 C106.099525,14.8354699 106.316248,15.0673735 106.35305,15.5080482 C106.316248,15.9481446 106.099525,16.1806265 105.70405,16.205494 L104.388525,16.205494 L104.388525,18.7922892 L106.093683,18.278747 C106.538228,18.1931566 106.822129,18.3521928 106.94597,18.7558554 C107.007307,19.1589398 106.822129,19.4347952 106.389851,19.5816867 L104.388525,20.1501687 L104.388525,23.8380723 C104.363406,24.3030361 104.129158,24.5534458 103.68403,24.5904578 C103.238901,24.5534458 103.004653,24.3030361 102.979535,23.8380723 L102.979535,20.5173976 L100.551772,21.1963373 C100.082109,21.3062169 99.7917822,21.1408193 99.6802079,20.7001446 C99.6305545,20.2479036 99.8408515,19.9546988 100.310515,19.8199518 L103.016337,19.104 L103.016337,16.205494 L100.959515,16.205494 C100.069842,16.1927711 99.7672475,15.7405301 100.051149,14.8470361 L101.348564,10.8289157 L100.384703,10.8289157 C99.9518416,10.8046265 99.7175941,10.5779277 99.6802079,10.1499759 C99.7175941,9.7220241 99.9518416,9.4953253 100.384703,9.47103614 L101.719505,9.47103614 L102.293733,7.56260241 Z" id="Fill-3" fill="#FFFFFF" mask="url(#mask-2)"></path>
                    <path d="M55.798403,37.3843084 L53.752096,36.5226217 C52.4231356,35.9980916 51.3050564,35.5984771 51.3050564,34.4846458 C51.3050564,33.4552482 52.1906406,32.845706 53.5622446,32.845706 C54.8491455,32.845706 55.8831059,33.3083566 56.8744228,34.1272482 L58.4563238,32.173706 C57.1904525,30.8915855 55.3760564,30.177947 53.5622446,30.177947 C50.3978584,30.177947 48.1617,32.1314892 48.1617,34.6737542 C48.1617,36.9430554 49.7441851,38.2032 51.3260861,38.854959 L53.4144525,39.7368867 C54.8070861,40.3256096 55.7563436,40.6824289 55.7563436,41.8378988 C55.7563436,42.9309108 54.891205,43.6237301 53.2666604,43.6237301 C51.8956406,43.6237301 50.4188881,42.9309108 49.3008089,41.9015133 L47.5080267,44.0447422 C49.0262545,45.4939952 51.1146208,46.3128867 53.2035713,46.3128867 C56.8107495,46.3128867 58.9417594,44.1494169 58.9417594,41.6071518 C58.9417594,39.3592482 57.6969178,38.1615614 55.798403,37.3843084" id="Fill-5" fill="#FFFFFF" mask="url(#mask-2)"></path>
                    <polygon id="Fill-6" fill="#FFFFFF" mask="url(#mask-2)" points="71.8724564 30.4722506 59.9328426 30.4722506 59.9328426 33.0561542 64.3204564 33.0561542 64.3204564 46.0190458 67.4427832 46.0190458 67.4427832 33.0561542 71.8724564 33.0561542"></polygon>
                    <path d="M76.3871248,39.6111614 L76.8509465,37.9097639 C77.3153525,36.2916434 77.7797584,34.5266313 78.1799069,32.8252337 L78.2646099,32.8252337 C78.7290158,34.505812 79.1501941,36.2916434 79.6362139,37.9097639 L80.0994515,39.6111614 L76.3871248,39.6111614 Z M76.4502139,30.4720771 L71.4509861,46.0188723 L74.6153723,46.0188723 L75.7124218,42.0273542 L80.7747386,42.0273542 L81.8717881,46.0188723 L85.1413228,46.0188723 L80.1210653,30.4720771 L76.4502139,30.4720771 Z" id="Fill-7" fill="#FFFFFF" mask="url(#mask-2)"></path>
                    <path d="M92.124002,37.6785542 L90.0987248,37.6785542 L90.0987248,32.9300241 L92.124002,32.9300241 C94.1282495,32.9300241 95.225299,33.4979277 95.225299,35.178506 C95.225299,36.8382651 94.1282495,37.6785542 92.124002,37.6785542 M98.2839525,35.178506 C98.2839525,31.6062651 95.6891208,30.4721928 92.4195861,30.4721928 L86.976398,30.4721928 L86.976398,46.018988 L90.0987248,46.018988 L90.0987248,40.1363855 L92.2717941,40.1363855 L95.4776554,46.018988 L98.9586554,46.018988 L95.3094178,39.653494 C97.1022,38.9600964 98.2839525,37.5102651 98.2839525,35.178506" id="Fill-8" fill="#FFFFFF" mask="url(#mask-2)"></path>
                    <path d="M106.131303,40.7457542 C106.131303,42.8884048 105.413372,43.6240193 104.042937,43.6240193 C103.156768,43.6240193 102.333689,43.1411277 101.722075,42.0064771 L99.5706198,43.5818024 C100.625026,45.388453 102.144422,46.3131759 104.422055,46.3131759 C107.776293,46.3131759 109.25363,43.9178024 109.25363,40.9978988 L109.25363,30.4720193 L106.131303,30.4720193 L106.131303,40.7457542 Z" id="Fill-9" fill="#FFFFFF" mask="url(#mask-2)"></path>
                    <polygon id="Fill-10" fill="#FFFFFF" mask="url(#mask-2)" points="113.008366 46.0186988 116.130109 46.0186988 116.130109 30.4719036 113.008366 30.4719036"></polygon>
                </g>
                <g transform="translate(0.000000, 7.000000)">
                    <mask id="mask-4" fill="white">
                        <use xlink:href="#path-3"></use>
                    </mask>
                    <g id="Clip-12"></g>
                    <path d="M52.5713366,0.8856 L25.9179406,20.1134286 C25.7695644,20.2206143 25.6346238,20.3389286 25.5061089,20.4625143 L25.5061089,20.4625143 L19.3035149,24.9362 C17.7286238,26.0730714 15.5234257,25.9752571 14.1611683,24.5888714 L14.1611683,24.5888714 C12.4437426,22.8428571 12.7428317,20.0290857 14.6501089,18.6538286 L14.6501089,18.6538286 L21.7067426,13.5622143 C23.8710495,12.0012857 24.7805842,9.2168 23.9563366,6.6748 L23.9563366,6.6748 L23.1788218,4.27571429 C22.2447525,1.39224286 18.1760891,1.39224286 17.2420198,4.27571429 L17.2420198,4.27571429 L14.6109703,12.3948857 C14.1927129,13.6852143 12.994604,14.5579286 11.6422772,14.5579286 L11.6422772,14.5579286 L3.127,14.5579286 C1.2150495,14.5579286 0.00934653465,16.1100714 0,17.7014571 L0,17.7014571 L0,17.7371857 C0.00525742574,18.6503143 0.404821782,19.5728143 1.29215842,20.2194429 L1.29215842,20.2194429 L8.18113861,25.2372571 C9.27526733,26.0344143 9.73324752,27.4465714 9.3149901,28.7363143 L9.3149901,28.7363143 L6.68394059,36.8560714 C5.74928713,39.7395429 9.0410198,42.1368714 11.4874752,40.3551286 L11.4874752,40.3551286 L18.3758713,35.3367286 C19.47,34.5401571 20.9514257,34.5401571 22.0449703,35.3367286 L22.0449703,35.3367286 L28.9339505,40.3551286 C31.3798218,42.1368714 34.6709703,39.7395429 33.736901,36.8560714 L33.736901,36.8560714 L31.1058515,28.7363143 C30.6881782,27.4465714 31.1455743,26.0344143 32.239703,25.2372571 L32.239703,25.2372571 L38.4189307,20.7354571 L57.2253267,7.16914286 C59.1331881,5.7933 59.4316931,2.97894286 57.7142673,1.23292857 L57.7142673,1.23292857 C56.9729703,0.479114286 55.9822376,0.1066 54.9786535,0.106014286 L54.9786535,0.106014286 C54.1386337,0.106014286 53.2898515,0.367828571 52.5713366,0.8856" id="Fill-11" fill="url(#linearGradient-5)" mask="url(#mask-4)"></path>
                </g>
                <g transform="translate(19.000000, 32.000000)">
                    <mask id="mask-7" fill="white">
                        <use xlink:href="#path-6"></use>
                    </mask>
                    <g id="Clip-14"></g>
                    <path d="M0.0946153846,10.029037 C1.10884615,9.51348148 2.33423077,9.60355556 3.27173077,10.304 L3.27173077,10.304 L10.0759615,15.3807407 C10.6476923,15.808 11.2667308,15.9976296 11.8655769,16 L11.8655769,16 L11.8915385,16 C13.8121154,15.9905185 15.5203846,14.0574815 14.8194231,11.8411852 L14.8194231,11.8411852 L12.2209615,3.62548148 C11.8725,2.52503704 12.1453846,1.33985185 12.8867308,0.510222222 L12.8867308,0.510222222 C8.57019231,3.72918519 3.4425,7.54133333 0.0946153846,10.029037" id="Fill-13" fill="url(#linearGradient-8)" mask="url(#mask-7)"></path>
                </g>
                <g transform="translate(26.000000, 0.000000)">
                    <mask id="mask-10" fill="white">
                        <use xlink:href="#path-9"></use>
                    </mask>
                    <g id="Clip-16"></g>
                    <path d="M15.1510606,0.109714286 C14.4497879,0.112 13.7439091,0.326285714 13.1393636,0.768571429 L13.1393636,0.768571429 L1.44457576,9.32742857 C-0.0690909091,10.4348571 -0.393818182,12.5697143 0.722,14.072 L0.722,14.072 C1.83781818,15.5742857 3.98942424,15.8965714 5.50251515,14.7891429 L5.50251515,14.7891429 L17.1978788,6.23085714 C18.7109697,5.12285714 19.035697,2.98742857 17.9204545,1.48514286 L17.9204545,1.48514286 C17.2554545,0.590285714 16.2225455,0.113714286 15.1763939,0.109714286 L15.1763939,0.109714286 L15.1510606,0.109714286 Z" id="Fill-15" fill="url(#linearGradient-11)" mask="url(#mask-10)"></path>
                </g>
            </g>
        </g>
    </g>
</svg>