<?xml version="1.0" encoding="UTF-8"?>
<svg width="56px" height="62px" viewBox="0 0 56 62" version="1.1" xmlns="http://www.w3.org/2000/svg" xmlns:xlink="http://www.w3.org/1999/xlink">
    <!-- Generator: Sketch 60.1 (88133) - https://sketch.com -->
    <title>编组</title>
    <desc>Created with Sketch.</desc>
    <defs>
        <polygon id="path-1" points="0 0.7917 35.2775 0.7917 35.2775 16.7917 0 16.7917"></polygon>
    </defs>
    <g id="页面-1" stroke="none" stroke-width="1" fill="none" fill-rule="evenodd">
        <g id="首页" transform="translate(-893.000000, -3475.000000)">
            <g id="编组" transform="translate(893.000000, 3474.000000)">
                <g transform="translate(0.000000, 0.520800)">
                    <g transform="translate(6.000000, 1.000000)">
                        <path d="M48.8747,11.7497 L48.8747,56.5977 C48.8747,58.4697 47.3447,59.9997 45.4727,59.9997 L4.1107,59.9997 C2.2387,59.9997 0.7087,58.4697 0.7087,56.5977 L0.7087,3.9017 C0.7087,2.0307 2.2387,0.4997 4.1107,0.4997 L36.9167,0.4997" id="Fill-1" fill="#FFFFFF"></path>
                        <path d="M48.8747,11.7497 L48.8747,56.5977 C48.8747,58.4697 47.3447,59.9997 45.4727,59.9997 L4.1107,59.9997 C2.2387,59.9997 0.7087,58.4697 0.7087,56.5977 L0.7087,3.9017 C0.7087,2.0307 2.2387,0.4997 4.1107,0.4997 L36.9167,0.4997" id="Stroke-3" stroke="#FCA253" stroke-width="2"></path>
                    </g>
                    <polygon id="Fill-4" fill="#FCA253" points="42.8747 0.4792 42.8747 12.7502 55.8897 12.7502"></polygon>
                    <g transform="translate(0.000000, 5.000000)">
                        <mask id="mask-2" fill="white">
                            <use xlink:href="#path-1"></use>
                        </mask>
                        <g id="Clip-7"></g>
                        <path d="M33.0065,16.7917 L-0.0005,16.7917 L-0.0005,3.0627 C-0.0005,1.8127 1.0225,0.7917 2.2705,0.7917 L33.0065,0.7917 C34.2555,0.7917 35.2775,1.8127 35.2775,3.0627 L35.2775,14.5207 C35.2775,15.7707 34.2555,16.7917 33.0065,16.7917" id="Fill-6" fill="#FCA253" mask="url(#mask-2)"></path>
                    </g>
                    <path d="M0.0729,21.8337 L5.8229,25.7087 L5.8229,21.8227 C5.8229,21.8227 0.1979,21.8337 0.0729,21.8337" id="Fill-8" fill="#C6661E"></path>
                    <path d="M42.8747,12.7497 L53.9167,23.5357 L53.9167,12.7927 C53.9167,12.7927 43.0887,12.7497 42.8747,12.7497" id="Fill-10" fill="#E6E6E6"></path>
                </g>
                <text id="SVG" font-family="PingFangSC-Regular, PingFang SC" font-size="10.576" font-weight="normal" fill="#FFFFFF">
                    <tspan x="7.9297" y="18">SVG</tspan>
                </text>
                <g transform="translate(16.000000, 27.520800)" fill="#FCA253">
                    <path d="M16.6188,11.8092 L21.3838,19.7492 L23.8158,16.4752 C24.1618,16.0102 24.8688,16.0422 25.1708,16.5382 L28.8818,22.6342 C29.2138,23.1792 28.8208,23.8762 28.1828,23.8762 L9.3598,23.8762 C8.7228,23.8762 8.3318,23.1812 8.6608,22.6362 L15.2198,11.8062 C15.5378,11.2802 16.3028,11.2812 16.6188,11.8092" id="Fill-12"></path>
                    <path d="M23.4186,12.3874 C22.5196,12.5714 21.6406,11.9904 21.4566,11.0904 C21.2736,10.1904 21.8546,9.3124 22.7546,9.1284 C23.6536,8.9454 24.5326,9.5254 24.7166,10.4254 C24.8996,11.3254 24.3186,12.2034 23.4186,12.3874" id="Fill-14"></path>
                    <path d="M22.7087,3.7497 L2.0417,3.7497 C1.2167,3.7497 0.5417,3.0747 0.5417,2.2497 C0.5417,1.4257 1.2167,0.7497 2.0417,0.7497 L22.7087,0.7497 C23.5327,0.7497 24.2087,1.4257 24.2087,2.2497 C24.2087,3.0747 23.5327,3.7497 22.7087,3.7497" id="Fill-16"></path>
                    <path d="M11.445,8.4167 L1.608,8.4167 C1.022,8.4167 0.542,7.9367 0.542,7.3507 L0.542,6.4827 C0.542,5.8967 1.022,5.4167 1.608,5.4167 L11.445,5.4167 C12.031,5.4167 12.511,5.8967 12.511,6.4827 L12.511,7.3507 C12.511,7.9367 12.031,8.4167 11.445,8.4167" id="Fill-18"></path>
                </g>
            </g>
        </g>
    </g>
</svg>