<?xml version="1.0" encoding="UTF-8"?>
<svg width="56px" height="62px" viewBox="0 0 56 62" version="1.1" xmlns="http://www.w3.org/2000/svg" xmlns:xlink="http://www.w3.org/1999/xlink">
    <!-- Generator: Sketch 60.1 (88133) - https://sketch.com -->
    <title>编组</title>
    <desc>Created with Sketch.</desc>
    <defs>
        <polygon id="path-1" points="0 0.7917 35.2775 0.7917 35.2775 16.7917 0 16.7917"></polygon>
        <polygon id="path-3" points="0 61.5208 55.89 61.5208 55.89 -0.0002 0 -0.0002"></polygon>
    </defs>
    <g id="页面-1" stroke="none" stroke-width="1" fill="none" fill-rule="evenodd">
        <g id="首页" transform="translate(-999.000000, -3474.000000)">
            <g id="编组" transform="translate(999.000000, 3474.000000)">
                <g transform="translate(6.000000, 0.520800)">
                    <path d="M48.8747,11.7497 L48.8747,56.5977 C48.8747,58.4697 47.3447,59.9997 45.4727,59.9997 L4.1107,59.9997 C2.2387,59.9997 0.7087,58.4697 0.7087,56.5977 L0.7087,3.9017 C0.7087,2.0307 2.2387,0.4997 4.1107,0.4997 L36.9167,0.4997" id="Fill-1" fill="#FFFFFF"></path>
                    <path d="M48.8747,11.7497 L48.8747,56.5977 C48.8747,58.4697 47.3447,59.9997 45.4727,59.9997 L4.1107,59.9997 C2.2387,59.9997 0.7087,58.4697 0.7087,56.5977 L0.7087,3.9017 C0.7087,2.0307 2.2387,0.4997 4.1107,0.4997 L36.9167,0.4997" id="Stroke-3" stroke="#FCA253" stroke-width="2"></path>
                </g>
                <polygon id="Fill-4" fill="#FCA253" points="42.8747 0 42.8747 12.271 55.8897 12.271"></polygon>
                <g transform="translate(0.000000, 4.520800)">
                    <mask id="mask-2" fill="white">
                        <use xlink:href="#path-1"></use>
                    </mask>
                    <g id="Clip-7"></g>
                    <path d="M33.0065,16.7917 L-0.0005,16.7917 L-0.0005,3.0627 C-0.0005,1.8127 1.0225,0.7917 2.2705,0.7917 L33.0065,0.7917 C34.2555,0.7917 35.2775,1.8127 35.2775,3.0627 L35.2775,14.5207 C35.2775,15.7707 34.2555,16.7917 33.0065,16.7917" id="Fill-6" fill="#FCA253" mask="url(#mask-2)"></path>
                </g>
                <path d="M0.0729,21.3545 L5.8229,25.2295 L5.8229,21.3435 C5.8229,21.3435 0.1979,21.3545 0.0729,21.3545" id="Fill-8" fill="#C6661E"></path>
                <path d="M42.8747,12.2705 L53.9167,23.0565 L53.9167,12.3135 C53.9167,12.3135 43.0887,12.2705 42.8747,12.2705" id="Fill-10" fill="#E6E6E6"></path>
                <polygon id="Fill-12" fill="#FFFFFF" points="7.7653 10.456 9.1193 15.62 9.1543 15.62 10.5593 10.456 11.3263 10.456 12.7233 15.62 12.7573 15.62 14.1113 10.456 14.9043 10.456 13.1363 16.611 12.3523 16.611 10.9553 11.481 10.9293 11.481 9.5243 16.611 8.7403 16.611 6.9723 10.456"></polygon>
                <polygon id="Fill-14" fill="#FFFFFF" points="19.9245 10.456 19.9245 11.068 16.2695 11.068 16.2695 13.128 19.7175 13.128 19.7175 13.74 16.2695 13.74 16.2695 15.999 20.0705 15.999 20.0705 16.611 15.5625 16.611 15.5625 10.456"></polygon>
                <path d="M21.7575,16.0166 L23.7225,16.0166 C24.1535,16.0166 24.4895,15.9306 24.7485,15.7756 C25.0505,15.5846 25.2055,15.2836 25.2055,14.8866 C25.2055,14.4906 25.0685,14.1976 24.8095,14.0076 C24.5595,13.8186 24.1965,13.7316 23.7225,13.7316 L21.7575,13.7316 L21.7575,16.0166 Z M21.7575,13.1456 L23.6275,13.1456 C24.0595,13.1456 24.3865,13.0506 24.6115,12.8776 C24.8345,12.6976 24.9555,12.4296 24.9555,12.0766 C24.9555,11.7316 24.8435,11.4726 24.6185,11.3006 C24.3955,11.1276 24.0675,11.0506 23.6365,11.0506 L21.7575,11.0506 L21.7575,13.1456 Z M23.8005,10.4556 C24.3685,10.4556 24.8255,10.5936 25.1625,10.8696 C25.4895,11.1456 25.6535,11.5246 25.6535,12.0076 C25.6535,12.3526 25.5595,12.6546 25.3775,12.9046 C25.1885,13.1276 24.9385,13.2916 24.6275,13.3956 C25.0325,13.4646 25.3435,13.6366 25.5685,13.8956 C25.7915,14.1546 25.9125,14.4816 25.9125,14.8956 C25.9125,15.4986 25.6965,15.9476 25.2745,16.2406 C24.9125,16.4826 24.4125,16.6116 23.7825,16.6116 L21.0505,16.6116 L21.0505,10.4556 L23.8005,10.4556 Z" id="Fill-16" fill="#FFFFFF"></path>
                <path d="M27.5895,13.4814 L29.3565,13.4814 C29.8565,13.4814 30.2185,13.3774 30.4595,13.1794 C30.6935,12.9814 30.8135,12.6794 30.8135,12.2664 C30.8135,11.8524 30.6935,11.5504 30.4505,11.3694 C30.2095,11.1634 29.8485,11.0684 29.3565,11.0684 L27.5895,11.0684 L27.5895,13.4814 Z M29.3995,10.4564 C30.8135,10.4564 31.5205,11.0594 31.5205,12.2664 C31.5205,13.4814 30.8045,14.0934 29.3915,14.0934 L27.5895,14.0934 L27.5895,16.6114 L26.8825,16.6114 L26.8825,10.4564 L29.3995,10.4564 Z" id="Fill-18" fill="#FFFFFF"></path>
                <mask id="mask-4" fill="white">
                    <use xlink:href="#path-3"></use>
                </mask>
                <g id="Clip-21"></g>
                <polygon id="Fill-20" fill="#FCA253" mask="url(#mask-4)" points="12.792 51.6878 49.292 51.6878 49.292 27.6878 12.792 27.6878"></polygon>
                <polygon id="Fill-22" fill="#FFFFFF" mask="url(#mask-4)" points="14.125 50.5208 48.15 50.5208 48.15 31.5358 14.125 31.5358"></polygon>
                <path d="M14.9899,29.1367 C14.9899,29.3897 14.7849,29.5947 14.5319,29.5947 C14.2789,29.5947 14.0739,29.3897 14.0739,29.1367 C14.0739,28.8827 14.2789,28.6777 14.5319,28.6777 C14.7849,28.6777 14.9899,28.8827 14.9899,29.1367" id="Fill-23" fill="#FFFFFF" mask="url(#mask-4)"></path>
                <path d="M16.8561,29.1367 C16.8561,29.3897 16.6511,29.5947 16.3981,29.5947 C16.1441,29.5947 15.9391,29.3897 15.9391,29.1367 C15.9391,28.8827 16.1441,28.6777 16.3981,28.6777 C16.6511,28.6777 16.8561,28.8827 16.8561,29.1367" id="Fill-24" fill="#FFFFFF" mask="url(#mask-4)"></path>
                <path d="M18.7175,29.1367 C18.7175,29.3897 18.5125,29.5947 18.2585,29.5947 C18.0055,29.5947 17.8005,29.3897 17.8005,29.1367 C17.8005,28.8827 18.0055,28.6777 18.2585,28.6777 C18.5125,28.6777 18.7175,28.8827 18.7175,29.1367" id="Fill-25" fill="#FFFFFF" mask="url(#mask-4)"></path>
                <polygon id="Fill-26" fill="#FCA253" mask="url(#mask-4)" points="15.459 33.9378 47.042 33.9378 47.042 32.4378 15.459 32.4378"></polygon>
            </g>
        </g>
    </g>
</svg>