<?xml version="1.0" encoding="UTF-8"?>
<svg width="55px" height="44px" viewBox="0 0 55 44" version="1.1" xmlns="http://www.w3.org/2000/svg" xmlns:xlink="http://www.w3.org/1999/xlink">
    <!-- Generator: Sketch 60.1 (88133) - https://sketch.com -->
    <title>编组</title>
    <desc>Created with Sketch.</desc>
    <defs>
        <polygon id="path-1" points="0 0.7501 54.2498 0.7501 54.2498 44 0 44"></polygon>
    </defs>
    <g id="页面-1" stroke="none" stroke-width="1" fill="none" fill-rule="evenodd">
        <g id="首页" transform="translate(-1124.000000, -1948.000000)">
            <g id="编组" transform="translate(1124.000000, 1947.000000)">
                <path d="M23.0413,22.2977 C23.0413,24.3327 24.7253,26.0177 26.7603,26.0177 C28.7953,26.0177 30.4793,24.3327 30.4793,22.2977 C30.4793,20.2627 28.7953,18.5787 26.7603,18.5787 C24.7253,18.5787 23.0413,20.2627 23.0413,22.2977" id="Fill-1" fill="#5B8EF4"></path>
                <path d="M26.7606,16.6141 L38.4806,16.6141 C36.3746,12.2621 31.9536,9.3151 26.8306,9.3151 C23.1116,9.3151 19.7426,10.8591 17.4276,13.3851 L21.4276,20.4031 C22.1986,18.2271 24.3046,16.6141 26.7606,16.6141" id="Fill-3" fill="#FCA253"></path>
                <path d="M27.8831,27.8417 C27.5321,27.9117 27.1121,27.9827 26.7601,27.9827 C24.7251,27.9827 22.9711,26.9297 21.9881,25.3857 L16.0931,15.0707 C14.6901,17.1057 13.9181,19.5617 13.9181,22.2287 C13.9181,28.4737 18.3391,33.6667 24.2341,34.8607 L23.9531,34.7197 L27.8831,27.8417 Z" id="Fill-5" fill="#FCA253"></path>
                <path d="M39.1819,18.579 L31.0409,18.579 C31.8839,19.561 32.4449,20.894 32.4449,22.298 C32.4449,23.421 32.1639,24.403 31.6029,25.316 L25.9179,35.141 C26.1989,35.141 26.5499,35.211 26.8309,35.211 C33.9889,35.211 39.7439,29.456 39.7439,22.298 C39.7439,20.965 39.5329,19.702 39.1819,18.579" id="Fill-7" fill="#FCA253"></path>
                <g transform="translate(0.000000, 0.250000)">
                    <mask id="mask-2" fill="white">
                        <use xlink:href="#path-1"></use>
                    </mask>
                    <g id="Clip-10"></g>
                    <path d="M49.6468,34.8661 C49.6468,37.7471 47.2898,40.1041 44.4088,40.1041 L9.8408,40.1041 C6.9598,40.1041 4.6038,37.7471 4.6038,34.8661 L4.6038,9.8841 C4.6038,7.0031 6.9598,4.6451 9.8408,4.6451 L44.4088,4.6451 C47.2898,4.6451 49.6468,7.0031 49.6468,9.8841 L49.6468,34.8661 Z M45.5988,0.7501 L8.6508,0.7501 C3.8928,0.7501 -0.0002,4.6431 -0.0002,9.4011 L-0.0002,35.3491 C-0.0002,40.1071 3.8928,44.0001 8.6508,44.0001 L45.5988,44.0001 C50.3568,44.0001 54.2498,40.1071 54.2498,35.3491 L54.2498,9.4011 C54.2498,4.6431 50.3568,0.7501 45.5988,0.7501 L45.5988,0.7501 Z" id="Fill-9" fill="#C7C7C7" mask="url(#mask-2)"></path>
                </g>
            </g>
        </g>
    </g>
</svg>